<svg width="196" height="50" viewBox="0 0 196 50" fill="none" xmlns="http://www.w3.org/2000/svg">
<g clip-path="url(#clip0_258_1295)">
<rect width="196" height="50" rx="25" fill="black"/>
<ellipse cx="26.9231" cy="25" rx="26.9231" ry="25" fill="#D4CD1F"/>
<path d="M26.4857 12.12C26.5924 12.2533 26.6057 12.36 26.5257 12.44C26.4724 12.52 26.4057 12.6267 26.3257 12.76C26.219 12.8933 26.1257 13 26.0457 13.08C25.9924 13.1333 25.8857 13.1333 25.7257 13.08C25.5657 13.0267 25.4857 12.96 25.4857 12.88C25.4857 12.7733 25.4857 12.6267 25.4857 12.44C25.4857 12.28 25.499 12.16 25.5257 12.08C25.5524 11.9733 25.6457 11.9067 25.8057 11.88C26.099 11.8 26.3257 11.88 26.4857 12.12ZM24.2057 12.2C24.3657 12.3333 24.4057 12.5067 24.3257 12.72C24.2724 12.9067 24.139 13 23.9257 13C23.7657 13 23.6457 12.9067 23.5657 12.72C23.539 12.5867 23.5124 12.4933 23.4857 12.44C23.4857 12.36 23.539 12.28 23.6457 12.2C23.8324 12.0667 24.019 12.0667 24.2057 12.2ZM29.0457 12.2L29.0057 12.6L28.6857 12.64L28.4057 12.4L28.7257 12.2H29.0457ZM21.6457 12.84C21.699 12.9733 21.6457 13.12 21.4857 13.28C21.3524 13.3867 21.259 13.48 21.2057 13.56C21.1524 13.64 21.059 13.64 20.9257 13.56C20.7657 13.4533 20.6724 13.36 20.6457 13.28C20.6457 13.1733 20.659 13.04 20.6857 12.88C20.7657 12.64 20.939 12.5067 21.2057 12.48C21.3924 12.48 21.539 12.6 21.6457 12.84ZM30.4857 12.64L30.7657 12.88L30.6057 13.2L30.2857 13.08L30.1657 12.76L30.4857 12.64ZM22.8857 13V13.36L22.5657 13.48L22.2857 13.2L22.4857 12.8L22.8857 13ZM27.1257 13.16L27.1657 13.56L26.8057 13.52L26.5657 13.2L26.8857 12.96L27.1257 13.16ZM32.1657 13.24L32.0057 13.68L31.6457 13.52L31.4857 13.28L31.7657 13L32.1657 13.24ZM30.0457 13.8C30.179 14.0667 30.1657 14.2533 30.0057 14.36C29.8724 14.4667 29.699 14.6267 29.4857 14.84C29.299 15 29.1524 15.12 29.0457 15.2C28.939 15.2533 28.779 15.2133 28.5657 15.08C28.3524 14.9733 28.2324 14.8667 28.2057 14.76C28.2057 14.6267 28.219 14.44 28.2457 14.2C28.299 13.9067 28.3257 13.6667 28.3257 13.48C28.3524 13.2933 28.5124 13.1733 28.8057 13.12C29.1524 13.0667 29.4057 13.0933 29.5657 13.2C29.7257 13.28 29.8857 13.48 30.0457 13.8ZM24.9657 13.32C25.0724 13.4 25.1257 13.48 25.1257 13.56C25.1257 13.6133 25.1124 13.7067 25.0857 13.84C25.059 14.08 24.9657 14.2133 24.8057 14.24C24.6457 14.2667 24.5124 14.2933 24.4057 14.32C24.3257 14.32 24.2457 14.24 24.1657 14.08C24.0857 13.9467 24.0857 13.8533 24.1657 13.8C24.2457 13.72 24.339 13.6267 24.4457 13.52C24.5524 13.4133 24.6324 13.3467 24.6857 13.32C24.739 13.2667 24.8324 13.2667 24.9657 13.32ZM20.0857 13.4L20.2857 13.64L20.2057 14L19.8457 13.88L19.7657 13.56L20.0857 13.4ZM26.2857 13.56L26.4857 14L26.1657 14.36L25.7257 14.08L25.7657 13.56H26.2857ZM18.5657 14L18.8057 14.4L18.3657 14.6L18.0857 14.32V13.84L18.5657 14ZM21.5257 14.16C21.9524 14.2133 22.219 14.3467 22.3257 14.56C22.459 14.7467 22.5657 15.04 22.6457 15.44C22.7257 15.8133 22.7124 16.0933 22.6057 16.28C22.5257 16.44 22.3257 16.6133 22.0057 16.8C21.7124 16.96 21.4857 16.9867 21.3257 16.88C21.1924 16.7467 21.0057 16.5733 20.7657 16.36C20.579 16.1733 20.4457 16.0133 20.3657 15.88C20.3124 15.7467 20.339 15.56 20.4457 15.32C20.6057 14.9467 20.7257 14.6533 20.8057 14.44C20.8857 14.2267 21.1257 14.1333 21.5257 14.16ZM19.6857 14.16L19.8457 14.52L19.5257 14.76L19.1657 14.48L19.4057 14.2L19.6857 14.16ZM31.0057 14.2L31.4057 14.52L31.2457 15.04L30.6057 15L30.4857 14.4L31.0057 14.2ZM24.0457 14.44L23.7257 14.76L23.4057 14.72L23.2857 14.36L23.6457 14.24L24.0457 14.44ZM34.9657 15.64C35.099 16.0133 35.059 16.2667 34.8457 16.4C34.659 16.5067 34.4057 16.6667 34.0857 16.88C33.7657 17.12 33.5124 17.3333 33.3257 17.52C33.139 17.68 32.8724 17.64 32.5257 17.4C32.179 17.1333 32.019 16.88 32.0457 16.64C32.099 16.4 32.2057 16.08 32.3657 15.68C32.499 15.2533 32.619 14.9333 32.7257 14.72C32.8324 14.5067 33.1124 14.4 33.5657 14.4C34.019 14.4 34.3257 14.4933 34.4857 14.68C34.6724 14.8667 34.8324 15.1867 34.9657 15.64ZM17.2457 14.8C17.3524 14.9333 17.419 15.04 17.4457 15.12C17.499 15.2 17.4857 15.3067 17.4057 15.44C17.3257 15.5733 17.2324 15.64 17.1257 15.64C17.0457 15.6133 16.9257 15.5867 16.7657 15.56C16.579 15.5067 16.4724 15.3733 16.4457 15.16C16.4457 15 16.5524 14.88 16.7657 14.8C16.8724 14.7467 16.9524 14.72 17.0057 14.72C17.0857 14.6933 17.1657 14.72 17.2457 14.8ZM25.1257 14.8L25.4857 15.2L25.1257 15.6L24.7657 15.36V15L25.1257 14.8ZM19.1257 15.16L18.9657 15.48L18.5657 15.44L18.4857 15.04L18.8457 14.84L19.1257 15.16ZM26.8457 15.48L26.9657 15.96L26.4857 15.84L26.3257 15.56L26.5257 15.2L26.8457 15.48ZM30.5657 15.44C30.8857 15.4933 31.1124 15.56 31.2457 15.64C31.4057 15.72 31.5257 15.92 31.6057 16.24C31.659 16.5867 31.6457 16.84 31.5657 17C31.4857 17.16 31.299 17.32 31.0057 17.48C30.739 17.6133 30.539 17.6133 30.4057 17.48C30.299 17.3467 30.139 17.1867 29.9257 17C29.739 16.8133 29.6057 16.6667 29.5257 16.56C29.4724 16.4267 29.499 16.2533 29.6057 16.04C29.739 15.7733 29.859 15.6 29.9657 15.52C30.099 15.44 30.299 15.4133 30.5657 15.44ZM16.1257 15.6L16.4057 15.88L16.2857 16.2L15.9657 16.16L15.7657 15.84L16.1257 15.6ZM28.0857 16.2L28.2057 16.48L27.9657 16.8L27.7257 16.52L27.6857 16.16L28.0857 16.2ZM27.1657 16.64L27.2857 17L26.9257 17.16L26.4857 16.92L26.7257 16.4L27.1657 16.64ZM24.8857 16.56C25.259 16.6133 25.5524 16.64 25.7657 16.64C26.0057 16.64 26.1524 16.8267 26.2057 17.2C26.2857 17.6 26.259 17.88 26.1257 18.04C25.9924 18.2 25.739 18.3733 25.3657 18.56C25.0457 18.7467 24.779 18.8267 24.5657 18.8C24.379 18.7467 24.1524 18.5867 23.8857 18.32C23.6457 18.1067 23.539 17.9067 23.5657 17.72C23.619 17.5333 23.7257 17.2933 23.8857 17C23.9924 16.76 24.1124 16.6267 24.2457 16.6C24.4057 16.5467 24.619 16.5333 24.8857 16.56ZM15.5657 16.84L15.3657 17.28H15.0457L14.7657 16.96L15.1257 16.64L15.5657 16.84ZM29.2057 17.16L28.9257 17.52L28.5657 17.4L28.4857 17L28.8857 16.88L29.2057 17.16ZM36.2057 17.32C36.259 17.48 36.219 17.64 36.0857 17.8C35.979 17.9067 35.899 17.9867 35.8457 18.04C35.7924 18.0933 35.7124 18.0933 35.6057 18.04C35.419 17.96 35.339 17.7867 35.3657 17.52C35.3924 17.36 35.419 17.24 35.4457 17.16C35.4724 17.08 35.5524 17.0267 35.6857 17C35.8457 16.9733 35.9524 17 36.0057 17.08C36.059 17.1333 36.1257 17.2133 36.2057 17.32ZM37.1257 17.4L37.2057 17.8L36.8857 17.88L36.6457 17.76L36.7257 17.44L37.1257 17.4ZM18.1257 17.52C18.7924 17.52 19.3257 17.52 19.7257 17.52C20.1524 17.52 20.459 17.84 20.6457 18.48C20.8857 19.2533 20.9524 19.8533 20.8457 20.28C20.739 20.68 20.3524 21.1067 19.6857 21.56C19.0724 22.0133 18.5657 22.1867 18.1657 22.08C17.7657 21.9467 17.259 21.6533 16.6457 21.2C16.1657 20.8267 15.979 20.48 16.0857 20.16C16.219 19.8133 16.379 19.3467 16.5657 18.76C16.7257 18.28 16.899 17.96 17.0857 17.8C17.2724 17.6133 17.619 17.52 18.1257 17.52ZM14.6857 17.64V17.88L14.4857 18.04L14.2057 17.84L14.4057 17.56L14.6857 17.64ZM28.6857 18.2C28.7657 18.4667 28.779 18.6667 28.7257 18.8C28.699 18.9067 28.5924 19.04 28.4057 19.2C28.219 19.36 28.059 19.4133 27.9257 19.36C27.819 19.3067 27.659 19.2133 27.4457 19.08C27.259 18.9467 27.1124 18.84 27.0057 18.76C26.9257 18.6533 26.9257 18.4933 27.0057 18.28C27.059 18.04 27.139 17.88 27.2457 17.8C27.379 17.72 27.5657 17.68 27.8057 17.68C28.0724 17.68 28.259 17.72 28.3657 17.8C28.4724 17.8533 28.579 17.9867 28.6857 18.2ZM22.0457 17.72L22.2457 18.12L22.1257 18.48L21.7257 18.32L21.6457 17.92L22.0457 17.72ZM34.7257 18.12L34.8057 18.48L34.4057 18.64L34.2057 18.36L34.3657 18.08L34.7257 18.12ZM29.8857 18.4C30.0457 18.4533 30.1657 18.4933 30.2457 18.52C30.3524 18.52 30.4057 18.6 30.4057 18.76C30.379 19.08 30.219 19.28 29.9257 19.36C29.7657 19.3867 29.659 19.36 29.6057 19.28C29.579 19.1733 29.5257 19.0533 29.4457 18.92C29.3924 18.8133 29.3524 18.7333 29.3257 18.68C29.299 18.6 29.3257 18.5067 29.4057 18.4C29.4857 18.32 29.5524 18.2933 29.6057 18.32C29.6857 18.32 29.779 18.3467 29.8857 18.4ZM23.2057 18.4L23.5657 18.84L23.0457 19.28L22.6057 18.88L22.6857 18.36L23.2057 18.4ZM32.1257 18.88C32.2057 19.04 32.179 19.1867 32.0457 19.32C31.9124 19.4267 31.819 19.5333 31.7657 19.64C31.7124 19.72 31.619 19.72 31.4857 19.64C31.3257 19.5333 31.2324 19.44 31.2057 19.36C31.2057 19.2533 31.219 19.1067 31.2457 18.92C31.299 18.7333 31.339 18.6 31.3657 18.52C31.419 18.44 31.539 18.3867 31.7257 18.36C31.8857 18.3333 31.979 18.3867 32.0057 18.52C32.0324 18.6267 32.0724 18.7467 32.1257 18.88ZM36.0457 18.6L36.2857 19.08L36.0057 19.44L35.5657 19.24L35.6857 18.88L36.0457 18.6ZM33.8857 18.96C34.0724 19.0667 34.1924 19.1733 34.2457 19.28C34.3257 19.36 34.3524 19.5067 34.3257 19.72C34.2724 19.9067 34.1924 20.0267 34.0857 20.08C33.979 20.1067 33.8324 20.1333 33.6457 20.16C33.3257 20.1867 33.099 20.08 32.9657 19.84C32.8857 19.6267 32.819 19.4533 32.7657 19.32C32.7124 19.1867 32.7657 19.04 32.9257 18.88C33.1124 18.72 33.259 18.6667 33.3657 18.72C33.499 18.7733 33.6724 18.8533 33.8857 18.96ZM26.0857 18.88L26.3657 19.12L26.0857 19.4H25.7257V19L26.0857 18.88ZM22.3257 19.04C22.4324 19.1467 22.4724 19.24 22.4457 19.32C22.419 19.4 22.379 19.5067 22.3257 19.64C22.2457 19.8267 22.099 19.9067 21.8857 19.88C21.7524 19.8533 21.6457 19.84 21.5657 19.84C21.4857 19.8133 21.4324 19.7333 21.4057 19.6C21.379 19.4667 21.3924 19.3867 21.4457 19.36C21.5257 19.3067 21.6324 19.24 21.7657 19.16C21.8724 19.08 21.9657 19.0133 22.0457 18.96C22.1257 18.9067 22.219 18.9333 22.3257 19.04ZM14.4457 19.04C14.579 19.1467 14.6324 19.28 14.6057 19.44C14.5257 19.68 14.419 19.8 14.2857 19.8C13.9924 19.8267 13.819 19.7467 13.7657 19.56C13.7124 19.4267 13.7124 19.3333 13.7657 19.28C13.819 19.2267 13.899 19.16 14.0057 19.08C14.139 18.9733 14.2857 18.96 14.4457 19.04ZM37.7657 19.36L37.8057 19.8L37.4457 19.92L37.1657 19.72L37.3257 19.32L37.7657 19.36ZM36.7257 19.56L36.7657 19.96L36.6457 20.32L36.3257 20.04L36.2857 19.68L36.7257 19.56ZM29.0857 19.68L29.4857 20.04L29.1657 20.4L28.7657 20.28L28.7257 19.92L29.0857 19.68ZM35.7657 19.88L36.0057 20.2L35.7657 20.44L35.4057 20.48V20.08L35.7657 19.88ZM31.3257 20.16L31.3657 20.52H30.9657L30.8457 20.2L31.0857 19.96L31.3257 20.16ZM23.0057 20.64L22.8457 21L22.4857 20.8V20.44L22.8857 20.16L23.0057 20.64ZM14.8457 20.64L14.6057 21H14.2057L14.1257 20.56L14.4857 20.24L14.8457 20.64ZM22.3257 21.72C22.539 21.88 22.619 22.04 22.5657 22.2C22.539 22.3333 22.4857 22.52 22.4057 22.76C22.299 23.0533 22.2324 23.3067 22.2057 23.52C22.179 23.7067 22.0057 23.8 21.6857 23.8C21.3924 23.8 21.219 23.7067 21.1657 23.52C21.139 23.3067 21.0857 23.0533 21.0057 22.76C20.9257 22.4667 20.8457 22.24 20.7657 22.08C20.7124 21.92 20.8057 21.7467 21.0457 21.56C21.3124 21.3733 21.5257 21.3067 21.6857 21.36C21.8457 21.4133 22.059 21.5333 22.3257 21.72ZM13.9257 21.6L14.2057 21.96L13.9257 22.28L13.5257 22.24L13.4857 21.8L13.9257 21.6ZM24.4057 21.8L24.7257 22.16L24.3257 22.44L23.8057 22.4L24.0057 21.92L24.4057 21.8ZM14.8857 22L15.0457 22.28L14.9257 22.64L14.5657 22.48L14.5257 22.08L14.8857 22ZM25.6057 22.44L26.0457 22.64L25.8457 23.12L25.4057 23L25.1657 22.6L25.6057 22.44ZM29.9257 22.92L29.8857 23.24L29.5257 23.2L29.3657 22.8L29.7657 22.56L29.9257 22.92ZM16.0457 22.84L16.0057 23.2L15.6057 23.28L15.4457 22.88L15.7657 22.64L16.0457 22.84ZM17.0857 23L17.3657 23.24L17.0057 23.48L16.6457 23.36L16.6857 22.92L17.0857 23ZM14.0857 22.92L14.2057 23.16L14.0857 23.4H13.7257L13.8057 23.04L14.0857 22.92ZM24.8057 23.04L24.9657 23.36L24.7257 23.52L24.4857 23.44L24.4057 23.08L24.8057 23.04ZM20.0857 24.12C20.1124 24.52 20.0724 24.8133 19.9657 25C19.859 25.16 19.6324 25.3067 19.2857 25.44C18.939 25.6 18.659 25.6533 18.4457 25.6C18.259 25.5467 18.0457 25.3733 17.8057 25.08C17.539 24.7867 17.3657 24.5333 17.2857 24.32C17.2324 24.1067 17.3124 23.8267 17.5257 23.48C17.7124 23.16 17.9124 23.0133 18.1257 23.04C18.339 23.0667 18.6324 23.12 19.0057 23.2C19.3524 23.28 19.6057 23.3733 19.7657 23.48C19.9524 23.56 20.059 23.7733 20.0857 24.12ZM30.8457 23.2L31.1257 23.52L30.8057 23.76L30.4457 23.68L30.4857 23.32L30.8457 23.2ZM15.2057 23.48L15.0057 23.8L14.7257 23.64L14.7657 23.36L15.0057 23.24L15.2057 23.48ZM28.8457 23.96C29.0324 24.3867 29.0857 24.72 29.0057 24.96C28.9524 25.1733 28.7524 25.44 28.4057 25.76C28.1124 26.08 27.8457 26.24 27.6057 26.24C27.3924 26.2133 27.099 26.1067 26.7257 25.92C26.3257 25.7067 26.059 25.5067 25.9257 25.32C25.7924 25.1333 25.7657 24.8267 25.8457 24.4C25.899 24 26.0324 23.76 26.2457 23.68C26.459 23.5733 26.779 23.4933 27.2057 23.44C27.6324 23.3867 27.9657 23.3733 28.2057 23.4C28.4457 23.4 28.659 23.5867 28.8457 23.96ZM16.1257 23.6L16.3657 23.96L16.3257 24.44L15.8457 24.36L15.6457 23.88L16.1257 23.6ZM32.3657 23.88L32.5257 24.28L32.2457 24.56L31.7657 24.48L31.9657 24L32.3657 23.88ZM14.8857 24.24V24.52L14.6057 24.64L14.2457 24.4L14.5257 24L14.8857 24.24ZM25.1257 24.24L24.9257 24.52L24.6457 24.44V24.2L24.8457 24L25.1257 24.24ZM21.8857 24.12L22.0057 24.52L21.8457 24.84L21.5257 24.68L21.4057 24.28L21.8857 24.12ZM30.7657 24.44L30.7257 24.76L30.4057 24.64L30.3257 24.36L30.6057 24.24L30.7657 24.44ZM33.9257 24.84L33.6457 25.28H33.1257L33.0457 24.68L33.5657 24.52L33.9257 24.84ZM24.4457 25.8C24.4457 26.04 24.419 26.2267 24.3657 26.36C24.3124 26.4667 24.179 26.56 23.9657 26.64C23.7257 26.72 23.539 26.7467 23.4057 26.72C23.299 26.6933 23.1657 26.5867 23.0057 26.4C22.7924 26.1067 22.619 25.8933 22.4857 25.76C22.3524 25.6 22.379 25.3733 22.5657 25.08C22.7524 24.7867 22.939 24.6533 23.1257 24.68C23.339 24.68 23.619 24.7333 23.9657 24.84C24.2324 24.92 24.379 25.04 24.4057 25.2C24.4324 25.3333 24.4457 25.5333 24.4457 25.8ZM16.0057 25.08C16.1924 25.1067 16.3524 25.12 16.4857 25.12C16.619 25.12 16.699 25.2133 16.7257 25.4C16.7524 25.64 16.739 25.8267 16.6857 25.96C16.6324 26.0667 16.499 26.1733 16.2857 26.28C16.0724 26.3867 15.899 26.4267 15.7657 26.4C15.659 26.3467 15.5257 26.24 15.3657 26.08C15.2057 25.9467 15.1657 25.8267 15.2457 25.72C15.3257 25.6133 15.4057 25.4667 15.4857 25.28C15.5924 25.12 15.7657 25.0533 16.0057 25.08ZM30.2057 25.16L30.3257 25.52L29.9657 25.72L29.4857 25.44L29.8457 25.08L30.2057 25.16ZM32.8857 26.44C33.0457 26.7333 33.1257 26.9733 33.1257 27.16C33.1524 27.32 33.0457 27.52 32.8057 27.76C32.5124 28.0267 32.2724 28.2 32.0857 28.28C31.899 28.36 31.6457 28.3067 31.3257 28.12C31.0057 27.96 30.8457 27.7733 30.8457 27.56C30.8724 27.3467 30.9124 27.0667 30.9657 26.72C31.0457 26.2933 31.0857 25.9467 31.0857 25.68C31.0857 25.4133 31.299 25.24 31.7257 25.16C32.1524 25.1067 32.4057 25.2133 32.4857 25.48C32.5657 25.72 32.699 26.04 32.8857 26.44ZM36.9257 25.72C36.979 25.88 36.979 26 36.9257 26.08C36.899 26.16 36.819 26.2533 36.6857 26.36C36.5257 26.4933 36.339 26.4933 36.1257 26.36C35.859 26.2 35.7524 26.0267 35.8057 25.84C35.8857 25.6 36.059 25.4667 36.3257 25.44C36.4857 25.44 36.6057 25.4533 36.6857 25.48C36.7924 25.5067 36.8724 25.5867 36.9257 25.72ZM35.0057 25.96C35.1124 26.12 35.2057 26.2533 35.2857 26.36C35.3924 26.44 35.3924 26.5467 35.2857 26.68C35.0457 27 34.739 27.0933 34.3657 26.96C34.019 26.8267 33.8457 26.56 33.8457 26.16C33.8457 25.9733 33.899 25.8667 34.0057 25.84C34.139 25.8133 34.299 25.7733 34.4857 25.72C34.6724 25.64 34.8457 25.72 35.0057 25.96ZM21.8457 26.16C22.0324 26.4533 22.0724 26.6933 21.9657 26.88C21.8857 27.04 21.7257 27.2667 21.4857 27.56C21.2457 27.8267 21.0457 28.04 20.8857 28.2C20.7257 28.36 20.4857 28.36 20.1657 28.2C19.7657 28.04 19.499 27.8667 19.3657 27.68C19.259 27.4933 19.219 27.1867 19.2457 26.76C19.2724 26.4133 19.3924 26.24 19.6057 26.24C19.8457 26.2133 20.139 26.16 20.4857 26.08C20.8057 26 21.059 25.92 21.2457 25.84C21.459 25.76 21.659 25.8667 21.8457 26.16ZM18.8457 26.08L18.9657 26.36L18.8857 26.64L18.4857 26.6L18.5657 26.24L18.8457 26.08ZM29.6457 26.12L30.0457 26.36L29.7657 26.72L29.3657 26.68L29.2457 26.28L29.6457 26.12ZM17.4457 26.76L17.1257 27.12L16.6457 27V26.52L17.1257 26.36L17.4457 26.76ZM26.4457 26.96C26.4457 27.12 26.3924 27.2133 26.2857 27.24C26.179 27.2667 26.0457 27.3067 25.8857 27.36C25.7524 27.3867 25.6457 27.4133 25.5657 27.44C25.5124 27.44 25.4324 27.3867 25.3257 27.28C25.1924 27.0667 25.1924 26.8533 25.3257 26.64C25.5124 26.4267 25.7124 26.36 25.9257 26.44C26.1124 26.4933 26.2457 26.5467 26.3257 26.6C26.4057 26.6533 26.4457 26.7733 26.4457 26.96ZM28.5257 26.48L28.8457 26.8L28.5657 27.12L28.2857 27.04L28.0857 26.68L28.5257 26.48ZM36.0057 26.96C36.1124 27.0667 36.139 27.16 36.0857 27.24C36.0324 27.32 35.9657 27.4267 35.8857 27.56C35.8324 27.64 35.7924 27.7067 35.7657 27.76C35.739 27.8133 35.659 27.84 35.5257 27.84C35.259 27.7867 35.1124 27.6667 35.0857 27.48C35.059 27.2667 35.1524 27.0933 35.3657 26.96C35.5257 26.9067 35.6457 26.8667 35.7257 26.84C35.8057 26.8133 35.899 26.8533 36.0057 26.96ZM27.4457 27V27.2L27.2057 27.44L27.0457 27.16L27.2057 26.92L27.4457 27ZM18.4457 27.24L18.8857 27.44L18.6457 27.92L18.1657 27.88L18.0057 27.4L18.4457 27.24ZM37.4857 27.68L37.5257 27.96L37.1657 28.12L37.0857 27.8L37.2057 27.52L37.4857 27.68ZM27.0457 27.72C27.259 27.8 27.3524 27.9067 27.3257 28.04C27.3257 28.1733 27.3257 28.36 27.3257 28.6C27.3257 28.84 27.339 29.04 27.3657 29.2C27.3924 29.3333 27.299 29.44 27.0857 29.52C26.8457 29.6 26.6724 29.6 26.5657 29.52C26.459 29.4133 26.3257 29.2533 26.1657 29.04C26.0324 28.88 25.9657 28.7467 25.9657 28.64C25.9924 28.5067 26.059 28.36 26.1657 28.2C26.3257 27.9867 26.4457 27.84 26.5257 27.76C26.6324 27.6533 26.8057 27.64 27.0457 27.72ZM28.7657 27.96C29.0057 28.04 29.1257 28.1733 29.1257 28.36C29.1257 28.52 29.0857 28.6133 29.0057 28.64C28.9524 28.6667 28.859 28.7067 28.7257 28.76C28.5924 28.7867 28.4724 28.8133 28.3657 28.84C28.2857 28.84 28.2057 28.7867 28.1257 28.68C28.019 28.4933 28.059 28.2933 28.2457 28.08C28.3524 27.92 28.5257 27.88 28.7657 27.96ZM25.0457 27.96L25.3257 28.24L25.0057 28.4L24.7657 28.32V28L25.0457 27.96ZM22.8057 28L23.0457 28.48L22.6457 28.68L22.1657 28.64L22.4057 28.2L22.8057 28ZM36.6457 28.04V28.56L36.3257 28.88L35.9257 28.6L36.0057 28.04H36.6457ZM34.4857 28.2C34.699 28.2533 34.8324 28.3333 34.8857 28.44C34.9657 28.52 35.019 28.6667 35.0457 28.88C35.099 29.2 34.9657 29.4267 34.6457 29.56C34.3524 29.72 34.099 29.68 33.8857 29.44C33.7257 29.28 33.619 29.1467 33.5657 29.04C33.539 28.9333 33.579 28.7867 33.6857 28.6C33.8724 28.28 34.139 28.1467 34.4857 28.2ZM23.9657 28.44L24.2457 28.96L23.7657 29.36L23.2857 29.04L23.5257 28.6L23.9657 28.44ZM30.1657 28.64L30.0457 29L29.6857 29.16L29.6057 28.8L29.8057 28.6L30.1657 28.64ZM38.4057 29.08C38.4857 29.1867 38.499 29.28 38.4457 29.36C38.3924 29.4133 38.3124 29.4933 38.2057 29.6C38.1257 29.7067 38.059 29.8 38.0057 29.88C37.979 29.96 37.899 29.9733 37.7657 29.92C37.6324 29.8667 37.5524 29.8 37.5257 29.72C37.5257 29.64 37.5257 29.5333 37.5257 29.4C37.5257 29.16 37.619 29.0133 37.8057 28.96C38.099 28.8533 38.299 28.8933 38.4057 29.08ZM31.2457 28.92L31.5257 29.16L31.3657 29.4L31.0457 29.48L30.9657 29.16L31.2457 28.92ZM29.1257 29.36L29.0857 29.8L28.6857 30.04L28.4057 29.6L28.6857 29.24L29.1257 29.36ZM33.7657 32.36C33.899 33.0267 33.9257 33.5333 33.8457 33.88C33.7924 34.2267 33.4724 34.5733 32.8857 34.92C32.2724 35.2933 31.7657 35.48 31.3657 35.48C30.9924 35.4533 30.539 35.2133 30.0057 34.76C29.419 34.2533 29.0724 33.8133 28.9657 33.44C28.859 33.0667 28.9524 32.5333 29.2457 31.84C29.5657 31.0933 29.8857 30.5867 30.2057 30.32C30.5257 30.0533 31.0857 29.9467 31.8857 30C32.6324 30.08 33.0857 30.32 33.2457 30.72C33.4057 31.0933 33.579 31.64 33.7657 32.36ZM37.0057 30.36C37.1124 30.4933 37.2057 30.6 37.2857 30.68C37.3657 30.7333 37.3657 30.8267 37.2857 30.96C37.2057 31.0933 37.1124 31.1467 37.0057 31.12C36.9257 31.0933 36.8057 31.0667 36.6457 31.04C36.5124 31.0133 36.4057 30.9867 36.3257 30.96C36.2457 30.9333 36.1924 30.84 36.1657 30.68C36.139 30.4133 36.2457 30.2267 36.4857 30.12C36.619 30.0667 36.7124 30.0667 36.7657 30.12C36.8457 30.1733 36.9257 30.2533 37.0057 30.36ZM28.8857 30.28L28.8457 30.64L28.5657 30.8L28.3657 30.56L28.4857 30.32L28.8857 30.28ZM35.0457 30.76L35.0057 31.08H34.6857L34.5657 30.84L34.7257 30.48L35.0457 30.76ZM38.6857 30.84L38.6457 31.36L38.0857 31.4L38.0457 30.96L38.2857 30.56L38.6857 30.84ZM14.2057 31.08L14.5657 31.4L14.3257 31.76L13.9657 31.68L13.8057 31.32L14.2057 31.08ZM18.9257 31.52L18.8857 31.96L18.4457 32.08L18.3257 31.68L18.5257 31.32L18.9257 31.52ZM16.4057 32.28C16.4324 32.44 16.4457 32.5733 16.4457 32.68C16.4457 32.76 16.3657 32.8533 16.2057 32.96C15.939 33.12 15.699 33.0933 15.4857 32.88C15.299 32.7467 15.1657 32.6267 15.0857 32.52C15.0057 32.4133 15.019 32.2667 15.1257 32.08C15.2324 31.84 15.3257 31.6667 15.4057 31.56C15.5124 31.4533 15.699 31.4133 15.9657 31.44C16.2057 31.4667 16.3257 31.56 16.3257 31.72C16.3257 31.8533 16.3524 32.04 16.4057 32.28ZM36.5257 31.6L36.6457 32L36.4457 32.24L36.1257 32.12V31.76L36.5257 31.6ZM21.4857 31.76C21.6724 31.8667 21.7657 31.9733 21.7657 32.08C21.7924 32.1867 21.7924 32.3467 21.7657 32.56C21.6857 32.8 21.6324 33 21.6057 33.16C21.579 33.2933 21.4324 33.3733 21.1657 33.4C20.899 33.4267 20.7257 33.3867 20.6457 33.28C20.5657 33.1467 20.4857 32.9467 20.4057 32.68C20.3257 32.52 20.3257 32.4 20.4057 32.32C20.4857 32.24 20.5924 32.1333 20.7257 32C20.8857 31.8667 21.0057 31.7733 21.0857 31.72C21.1924 31.64 21.3257 31.6533 21.4857 31.76ZM38.7657 32L38.6057 32.56L38.0857 32.52L37.8057 32.08L38.2457 31.92L38.7657 32ZM14.6857 32.48C14.739 32.64 14.7257 32.76 14.6457 32.84C14.5924 32.8933 14.499 32.9733 14.3657 33.08C14.2057 33.24 14.0324 33.2667 13.8457 33.16C13.6324 33.0533 13.539 32.88 13.5657 32.64C13.619 32.48 13.659 32.36 13.6857 32.28C13.739 32.2 13.8457 32.1467 14.0057 32.12C14.3257 32.0933 14.5524 32.2133 14.6857 32.48ZM35.4857 32.44L35.6857 32.8L35.3257 33L35.0057 32.72L35.1257 32.32L35.4857 32.44ZM23.8057 32.56V33.12H23.4857L23.4057 32.72L23.8057 32.56ZM19.6057 33.68C19.8724 34.1067 20.019 34.4533 20.0457 34.72C20.0724 34.96 19.9257 35.2667 19.6057 35.64C19.2857 36.0133 18.9924 36.1867 18.7257 36.16C18.4857 36.1067 18.1524 35.9867 17.7257 35.8C17.2724 35.64 16.939 35.4933 16.7257 35.36C16.5124 35.2 16.419 34.88 16.4457 34.4C16.4724 33.8933 16.579 33.5467 16.7657 33.36C16.979 33.1733 17.339 33.0133 17.8457 32.88C18.299 32.7733 18.6324 32.7733 18.8457 32.88C19.0857 32.9867 19.339 33.2533 19.6057 33.68ZM27.4857 33.12L27.3657 33.52H27.0457L26.8057 33.2L27.1257 32.96L27.4857 33.12ZM24.6457 33L25.0057 33.28L24.6857 33.52L24.3657 33.6L24.2457 33.2L24.6457 33ZM28.3657 33.48L28.2857 33.8L27.9257 33.68L28.0057 33.36L28.2457 33.2L28.3657 33.48ZM37.2857 33.6C37.4457 33.84 37.499 34.04 37.4457 34.2C37.419 34.3333 37.3124 34.5067 37.1257 34.72C36.939 34.9333 36.779 35.08 36.6457 35.16C36.5124 35.24 36.299 35.2267 36.0057 35.12C35.7657 35.0133 35.659 34.88 35.6857 34.72C35.739 34.56 35.779 34.3467 35.8057 34.08C35.8324 33.8667 35.8724 33.72 35.9257 33.64C35.979 33.5333 36.099 33.4533 36.2857 33.4C36.5257 33.3467 36.7124 33.32 36.8457 33.32C37.0057 33.2933 37.1524 33.3867 37.2857 33.6ZM25.7657 33.4L25.8857 33.8L25.7257 34.2L25.3257 33.96V33.56L25.7657 33.4ZM23.0057 33.6L23.4457 33.76L23.2457 34.24L22.7657 34.2L22.6857 33.76L23.0057 33.6ZM21.8457 33.92C22.0057 34 22.099 34.0933 22.1257 34.2C22.1524 34.3067 22.1524 34.4533 22.1257 34.64C22.0724 34.88 21.899 35.0267 21.6057 35.08C21.4457 35.1067 21.339 35.0933 21.2857 35.04C21.259 34.96 21.2057 34.8533 21.1257 34.72C21.0457 34.56 21.0857 34.4 21.2457 34.24C21.379 34.1067 21.4724 34 21.5257 33.92C21.579 33.84 21.6857 33.84 21.8457 33.92ZM16.1257 33.96V34.32L15.6457 34.16L15.7657 33.88L16.1257 33.96ZM14.9657 34.44C15.019 34.6533 15.019 34.8 14.9657 34.88C14.9124 34.96 14.8057 35.0533 14.6457 35.16C14.4057 35.32 14.1657 35.3067 13.9257 35.12C13.7924 35.0133 13.7257 34.92 13.7257 34.84C13.7524 34.7333 13.7924 34.6133 13.8457 34.48C13.899 34.32 13.9524 34.2133 14.0057 34.16C14.059 34.08 14.1657 34.04 14.3257 34.04C14.5124 34.04 14.6457 34.0667 14.7257 34.12C14.8324 34.1467 14.9124 34.2533 14.9657 34.44ZM24.8457 34.2L24.7657 34.48L24.5257 34.6L24.2457 34.32L24.5657 34.12L24.8457 34.2ZM28.5257 34.16L28.6057 34.52L28.4057 34.68L28.0457 34.64L28.2057 34.32L28.5257 34.16ZM24.0057 34.72L23.7657 34.92L23.5257 34.84L23.4457 34.56L23.8057 34.36L24.0057 34.72ZM16.0857 34.92V35.28L15.6857 35.36L15.4457 34.96L15.8057 34.8L16.0857 34.92ZM26.6457 34.84C27.0724 34.8933 27.3257 35.0267 27.4057 35.24C27.5124 35.4533 27.6057 35.7733 27.6857 36.2C27.7924 36.6533 27.859 37.0267 27.8857 37.32C27.939 37.5867 27.7524 37.8267 27.3257 38.04C26.9257 38.28 26.6324 38.2933 26.4457 38.08C26.259 37.8667 25.9924 37.6 25.6457 37.28C25.379 37.04 25.1924 36.8267 25.0857 36.64C25.0057 36.4533 25.0457 36.2 25.2057 35.88C25.3924 35.48 25.5657 35.2 25.7257 35.04C25.9124 34.8533 26.219 34.7867 26.6457 34.84ZM35.2857 35.52C35.3124 35.7067 35.3124 35.8533 35.2857 35.96C35.259 36.0667 35.1657 36.16 35.0057 36.24C34.819 36.32 34.6724 36.3467 34.5657 36.32C34.4857 36.2667 34.379 36.16 34.2457 36C34.1124 35.8667 34.019 35.76 33.9657 35.68C33.939 35.5733 33.9657 35.4267 34.0457 35.24C34.1524 35.08 34.259 35.0133 34.3657 35.04C34.4724 35.04 34.6057 35.0533 34.7657 35.08C34.9524 35.1067 35.0724 35.1467 35.1257 35.2C35.2057 35.2533 35.259 35.36 35.2857 35.52ZM23.5657 35.6C23.619 35.76 23.619 35.88 23.5657 35.96C23.5124 36.0133 23.419 36.0933 23.2857 36.2C23.1524 36.28 23.0457 36.3467 22.9657 36.4C22.8857 36.4533 22.779 36.4267 22.6457 36.32C22.5124 36.2133 22.4457 36.12 22.4457 36.04C22.4724 35.96 22.5124 35.8267 22.5657 35.64C22.619 35.4533 22.7657 35.36 23.0057 35.36C23.1657 35.36 23.2857 35.3733 23.3657 35.4C23.4457 35.4 23.5124 35.4667 23.5657 35.6ZM20.5657 35.88L20.4057 36.24L19.9257 36.2L20.0057 35.76L20.3257 35.48L20.5657 35.88ZM21.4857 35.52L21.6857 35.76V36.08L21.3257 36.04L21.1257 35.68L21.4857 35.52ZM29.5257 35.8L29.4457 36.24L29.0057 36.28L28.8857 35.92L29.1257 35.64L29.5257 35.8ZM15.9257 36.04C16.1124 36.0933 16.1924 36.2533 16.1657 36.52C16.139 36.7067 16.0324 36.8267 15.8457 36.88C15.6057 36.9333 15.4457 36.88 15.3657 36.72C15.259 36.56 15.2857 36.3867 15.4457 36.2C15.579 36.0133 15.739 35.96 15.9257 36.04ZM36.0057 36.04L36.2457 36.4L36.0857 36.68L35.6857 36.72L35.7657 36.32L36.0057 36.04ZM32.4457 36.36L32.2057 36.68L31.8457 36.88L31.6057 36.44L32.0057 36.2L32.4457 36.36ZM31.2457 37.04C31.2724 37.3067 31.219 37.48 31.0857 37.56C30.979 37.64 30.8057 37.72 30.5657 37.8C30.379 37.9067 30.219 37.96 30.0857 37.96C29.979 37.96 29.8457 37.8667 29.6857 37.68C29.5257 37.4933 29.4057 37.3333 29.3257 37.2C29.2724 37.0667 29.3124 36.8933 29.4457 36.68C29.579 36.4667 29.7124 36.36 29.8457 36.36C30.0057 36.36 30.2057 36.3867 30.4457 36.44C30.6857 36.4933 30.8724 36.5467 31.0057 36.6C31.139 36.6533 31.219 36.8 31.2457 37.04ZM35.4057 36.88L35.1257 37.28L34.8457 37.24L34.7257 36.96L34.9657 36.56L35.4057 36.88ZM33.4057 36.96V37.36L33.0457 37.56L32.7257 37.2L32.9657 36.8L33.4057 36.96ZM21.1257 36.92C21.3124 36.9733 21.4457 37.0267 21.5257 37.08C21.6324 37.1067 21.699 37.2133 21.7257 37.4C21.7524 37.6133 21.7257 37.76 21.6457 37.84C21.5657 37.8933 21.4457 37.96 21.2857 38.04C21.099 38.1467 20.9524 38.2133 20.8457 38.24C20.739 38.2667 20.6057 38.2 20.4457 38.04C20.2057 37.7733 20.1657 37.48 20.3257 37.16C20.4324 36.9733 20.539 36.88 20.6457 36.88C20.7524 36.88 20.9124 36.8933 21.1257 36.92ZM19.1657 37.32C19.219 37.4533 19.2724 37.56 19.3257 37.64C19.379 37.6933 19.3657 37.7733 19.2857 37.88C19.099 38.0933 18.8857 38.1467 18.6457 38.04C18.5124 37.9867 18.459 37.92 18.4857 37.84C18.5124 37.76 18.5257 37.64 18.5257 37.48C18.5257 37.3733 18.5257 37.28 18.5257 37.2C18.5257 37.12 18.5924 37.0533 18.7257 37C18.859 36.9733 18.939 37 18.9657 37.08C19.019 37.1333 19.0857 37.2133 19.1657 37.32ZM22.8457 37.04L23.0457 37.4L22.8857 37.72L22.5657 37.56L22.5257 37.24L22.8457 37.04ZM17.4457 37.28L17.6457 37.8L17.0457 37.96L16.7657 37.48L17.1257 37.16L17.4457 37.28ZM24.3257 37.52C24.459 37.6267 24.499 37.72 24.4457 37.8C24.419 37.88 24.379 38 24.3257 38.16C24.2457 38.2933 24.179 38.4 24.1257 38.48C24.099 38.56 24.0057 38.5867 23.8457 38.56C23.6857 38.5333 23.579 38.4933 23.5257 38.44C23.4724 38.36 23.4324 38.2267 23.4057 38.04C23.379 37.88 23.3657 37.76 23.3657 37.68C23.3924 37.6 23.4857 37.52 23.6457 37.44C23.8857 37.3067 24.1124 37.3333 24.3257 37.52ZM29.1257 37.52V37.88H28.7657L28.5257 37.6L28.8457 37.44L29.1257 37.52ZM34.2057 38L34.1657 38.4L33.7257 38.32L33.6457 38L33.9257 37.8L34.2057 38ZM31.8857 37.88L32.0857 38.16L31.9657 38.52L31.5257 38.44V38.04L31.8857 37.88ZM22.6057 38.2L22.4457 38.52L22.0457 38.4V38L22.4057 37.96L22.6057 38.2ZM17.9257 38.2L18.1657 38.48L17.8457 38.8L17.5657 38.48V38.12L17.9257 38.2ZM19.9657 38.36L19.7657 38.76L19.4457 38.8L19.0857 38.48L19.4857 38.16L19.9657 38.36ZM29.1657 38.48C29.3257 38.5333 29.3924 38.6667 29.3657 38.88C29.3657 39.04 29.379 39.1867 29.4057 39.32C29.4324 39.4267 29.3524 39.4933 29.1657 39.52C28.8724 39.6 28.6324 39.4933 28.4457 39.2C28.339 39.0667 28.3257 38.96 28.4057 38.88C28.4857 38.8 28.579 38.7067 28.6857 38.6C28.819 38.44 28.979 38.4 29.1657 38.48ZM30.6857 39V39.24L30.4457 39.4L30.1657 39.12L30.4057 38.76L30.6857 39ZM23.4057 39.2L23.2857 39.6L22.8857 39.52L22.8057 39.16L23.1257 38.8L23.4057 39.2ZM25.6057 38.84L25.5257 39.28L25.1657 39.24L25.2057 38.84H25.6057ZM21.0057 38.88L21.2857 39.12L21.1257 39.44H20.7657L20.7257 39.08L21.0057 38.88ZM31.8457 39.04L31.6057 39.36H31.2457L31.1657 38.96L31.5257 38.92L31.8457 39.04ZM22.0857 39.08V39.4L21.8457 39.68L21.4457 39.36L21.7257 39L22.0857 39.08ZM28.2057 39.24L28.0057 39.72L27.4857 39.8L27.4457 39.32L27.7657 39.08L28.2057 39.24ZM24.8057 39.2L24.8457 39.76L24.4857 40.2L24.0057 39.84L24.2457 39.4L24.8057 39.2ZM26.7257 39.32L27.0457 39.76L26.7257 40.28L26.2857 39.96L26.2457 39.52L26.7257 39.32Z" fill="#C90F0F"/>
<path d="M63.418 19.8438C63.2513 20.4375 63.168 21.0469 63.168 21.6719C63.168 22.2969 63.2513 22.8646 63.418 23.375C63.5951 23.8854 63.9492 24.375 64.4805 24.8438C65.6888 25.9062 67.7878 26.75 70.7773 27.375C72.7044 27.7917 74.1628 28.2552 75.1523 28.7656C76.1523 29.2656 76.9284 29.7917 77.4805 30.3438C78.043 30.8854 78.4023 31.5365 78.5586 32.2969C78.7044 31.8698 78.7773 31.3854 78.7773 30.8438C78.7773 30.2917 78.668 29.776 78.4492 29.2969C78.2409 28.8177 77.9596 28.401 77.6055 28.0469C77.2617 27.6823 76.8607 27.3646 76.4023 27.0938C75.944 26.8229 75.4701 26.5938 74.9805 26.4062C74.3138 26.1458 73.5117 25.901 72.5742 25.6719C71.6367 25.4427 70.8398 25.2448 70.1836 25.0781C69.5273 24.9115 68.8867 24.724 68.2617 24.5156C67.6367 24.3073 67.043 24.0677 66.4805 23.7969C65.918 23.526 65.418 23.2031 64.9805 22.8281C64.0534 22.026 63.5326 21.0312 63.418 19.8438ZM62.8086 31.7812C65.2357 34.8958 68.2565 36.4531 71.8711 36.4531C74.1003 36.4531 75.6576 35.9062 76.543 34.8125C76.8867 34.4062 77.0586 33.9323 77.0586 33.3906C77.0586 32.849 76.9388 32.3958 76.6992 32.0312C76.4596 31.6562 76.1471 31.3229 75.7617 31.0312C75.3763 30.7396 74.9388 30.4844 74.4492 30.2656C73.9701 30.0365 73.4857 29.8385 72.9961 29.6719C72.2148 29.401 71.4128 29.1823 70.5898 29.0156C69.7669 28.849 68.9909 28.6719 68.2617 28.4844C67.5326 28.2865 66.8398 28.0521 66.1836 27.7812C65.5273 27.5104 64.918 27.1927 64.3555 26.8281C63.793 26.4635 63.3034 26.0312 62.8867 25.5312C62.0117 24.4792 61.5742 23.151 61.5742 21.5469C61.5742 19.1615 62.4596 17.2708 64.2305 15.875C65.8555 14.5938 67.8242 13.9531 70.1367 13.9531C71.4388 13.9531 72.8763 14.2188 74.4492 14.75C75.9701 15.2708 77.0221 15.8698 77.6055 16.5469C77.8451 15.901 78.1836 15.1146 78.6211 14.1875C78.7982 13.8854 79.0221 13.7344 79.293 13.7344C79.5742 13.7344 79.793 13.8229 79.9492 14C80.1055 14.1667 80.1836 14.3333 80.1836 14.5C80.1836 14.6562 80.0326 15.0469 79.7305 15.6719C79.4284 16.2969 79.1003 17.1771 78.7461 18.3125C78.4023 19.4375 78.1576 20.5781 78.0117 21.7344C77.9909 21.9427 77.9023 22.1146 77.7461 22.25C77.6003 22.375 77.4128 22.4375 77.1836 22.4375C76.9648 22.4375 76.7773 22.349 76.6211 22.1719C76.4648 21.9948 76.3867 21.8177 76.3867 21.6406V21.5469C76.5117 20.4427 76.7357 19.3542 77.0586 18.2812C76.8711 17.7083 75.9596 17.1146 74.3242 16.5C72.6992 15.875 71.2513 15.5625 69.9805 15.5625C67.793 15.5625 66.2982 16.2396 65.4961 17.5938C65.2148 18.0625 65.069 18.6302 65.0586 19.2969C65.1628 20.8177 66.1315 21.9479 67.9648 22.6875C68.8503 23.0625 69.7253 23.3438 70.5898 23.5312C71.4544 23.7083 72.2513 23.8854 72.9805 24.0625C73.7201 24.2292 74.569 24.4688 75.5273 24.7812C76.4857 25.0938 77.3242 25.5052 78.043 26.0156C79.6263 27.1302 80.418 28.7656 80.418 30.9219C80.418 33.0677 79.4857 34.8333 77.6211 36.2188C75.9232 37.4688 74.0169 38.0938 71.9023 38.0938C68.2148 38.0938 65.1419 36.7812 62.6836 34.1562V34.5312C62.6836 35.1875 62.7044 35.8385 62.7461 36.4844V36.5469C62.7461 36.7552 62.6732 36.9375 62.5273 37.0938C62.3919 37.25 62.2044 37.3333 61.9648 37.3438C61.7357 37.3542 61.543 37.2865 61.3867 37.1406C61.2305 36.9948 61.1419 36.7812 61.1211 36.5C61.0794 35.9375 61.0586 35.2083 61.0586 34.3125C61.0586 32.6562 61.2513 30.8646 61.6367 28.9375C61.7513 28.4896 62.0169 28.2656 62.4336 28.2656C62.6732 28.2656 62.8711 28.3594 63.0273 28.5469C63.1836 28.724 63.2617 28.8646 63.2617 28.9688V29.1562C63.2617 29.1875 63.2409 29.2708 63.1992 29.4062C63.168 29.5417 63.1315 29.7135 63.0898 29.9219C63.0586 30.1198 63.0221 30.3125 62.9805 30.5C62.9492 30.7188 62.8919 31.1458 62.8086 31.7812ZM90.3398 36.1094C89.6315 35.4948 89.2773 34.724 89.2773 33.7969V15.875L87.043 16.5156V31.9375C87.043 34.2083 87.7409 35.5417 89.1367 35.9375C89.5326 36.0417 89.9336 36.099 90.3398 36.1094ZM90.918 21.2188C92.2096 21.1771 93.5065 21.1042 94.8086 21H94.8711C95.1003 21 95.293 21.0833 95.4492 21.25C95.6055 21.4062 95.6836 21.5885 95.6836 21.7969C95.6836 22.0052 95.6107 22.1927 95.4648 22.3594C95.3294 22.5156 95.1576 22.6042 94.9492 22.625C93.3555 22.75 92.0117 22.8281 90.918 22.8594V33.7969C90.918 34.4219 91.2357 34.8646 91.8711 35.125C92.0482 35.1979 92.2513 35.2344 92.4805 35.2344C92.7201 35.2344 92.9284 35.1615 93.1055 35.0156C93.293 34.8594 93.4492 34.6667 93.5742 34.4375C93.7409 34.1354 93.8763 33.7812 93.9805 33.375C94.1367 32.7396 94.4336 32.4219 94.8711 32.4219C95.1107 32.4219 95.3034 32.5156 95.4492 32.7031C95.6055 32.8802 95.6836 33.0625 95.6836 33.25V33.4219C95.3815 34.8073 94.7878 35.8802 93.9023 36.6406C93.0169 37.3906 91.9232 37.7656 90.6211 37.7656C88.2669 37.7656 86.6784 36.8021 85.8555 34.875C85.5326 34.125 85.3711 33.1458 85.3711 31.9375V22.8281C84.9023 22.7969 84.4284 22.7656 83.9492 22.7344C83.4805 22.7031 83.0742 22.6667 82.7305 22.625C82.1055 22.5625 81.793 22.2865 81.793 21.7969C81.793 21.5573 81.8815 21.3646 82.0586 21.2188C82.2461 21.0729 82.4336 21 82.6211 21H82.6836L85.3711 21.1875V15.875C85.3711 15.6979 85.4284 15.5365 85.543 15.3906C85.6576 15.2344 85.8034 15.1302 85.9805 15.0781L89.8867 14.0312C89.9284 14 90.0326 13.9844 90.1992 13.9844C90.3763 13.9844 90.5378 14.0729 90.6836 14.25C90.8398 14.4271 90.918 14.6198 90.918 14.8281V21.2188ZM108.355 31.5312C108.314 31.1771 108.293 30.8021 108.293 30.4062H107.715C106.007 30.4062 104.329 30.7188 102.684 31.3438C100.579 32.1354 99.5273 33.2656 99.5273 34.7344C99.5273 35.276 99.7721 35.6979 100.262 36C100.668 36.2396 101.199 36.3594 101.855 36.3594C102.512 36.3594 103.168 36.2188 103.824 35.9375C104.491 35.6458 105.105 35.2708 105.668 34.8125C106.668 33.9792 107.564 32.8854 108.355 31.5312ZM112.121 35.4062C112.152 35.0938 112.168 34.4688 112.168 33.5312C112.168 32.5938 112.147 31.7031 112.105 30.8594C112.074 30.0052 111.996 29.1823 111.871 28.3906C111.746 27.599 111.559 26.8542 111.309 26.1562C111.059 25.4583 110.72 24.8542 110.293 24.3438C109.345 23.2188 108.027 22.6562 106.34 22.6562C106.309 22.6562 106.283 22.6667 106.262 22.6875C106.241 22.6979 106.215 22.7031 106.184 22.7031H106.246C107.923 23.6094 109.012 25.1146 109.512 27.2188C109.793 28.375 109.944 29.474 109.965 30.5156C109.996 31.5469 110.012 32.3594 110.012 32.9531C110.012 33.8906 109.97 34.8333 109.887 35.7812C110.637 35.625 111.382 35.5 112.121 35.4062ZM114.746 35.2344L115.871 35.2656C116.1 35.2865 116.283 35.375 116.418 35.5312C116.564 35.6875 116.637 35.8802 116.637 36.1094C116.637 36.3281 116.559 36.5208 116.402 36.6875C116.257 36.8542 116.069 36.9375 115.84 36.9375H115.777C115.6 36.9167 115.418 36.9062 115.23 36.9062H114.684C112.777 36.9062 110.934 37.1615 109.152 37.6719L108.934 37.7031C108.694 37.7031 108.496 37.6094 108.34 37.4219C108.194 37.2448 108.121 37.0625 108.121 36.875V36.75C108.121 36.7292 108.147 36.5208 108.199 36.125C108.251 35.7188 108.303 35.1562 108.355 34.4375C106.241 36.8021 104.043 37.9844 101.762 37.9844C100.71 37.9844 99.8138 37.6927 99.0742 37.1094C98.2826 36.4948 97.8867 35.75 97.8867 34.875C97.8867 34 98.0534 33.2656 98.3867 32.6719C98.7305 32.0781 99.1784 31.5625 99.7305 31.125C100.283 30.6771 100.908 30.3073 101.605 30.0156C102.314 29.7135 103.033 29.4688 103.762 29.2812C105.116 28.9479 106.434 28.7812 107.715 28.7812H108.09C108.09 27.4583 107.668 26.3021 106.824 25.3125C105.928 24.2708 104.84 23.75 103.559 23.75C102.6 23.75 101.704 24.2396 100.871 25.2188C100.059 26.1667 99.6523 27.1615 99.6523 28.2031C99.6523 28.4115 99.5638 28.5885 99.3867 28.7344C99.2201 28.8698 99.0273 28.9375 98.8086 28.9375C98.5898 28.9375 98.3971 28.8542 98.2305 28.6875C98.0638 28.5104 97.9805 28.2448 97.9805 27.8906C97.9805 27.5365 98.069 27.0885 98.2461 26.5469C98.4232 25.9948 98.6784 25.4583 99.0117 24.9375C99.3555 24.4062 99.7669 23.9062 100.246 23.4375C100.736 22.9688 101.293 22.5521 101.918 22.1875C103.251 21.4167 104.605 21.0312 105.98 21.0312C107.366 21.0312 108.47 21.2135 109.293 21.5781C110.126 21.9427 110.819 22.4375 111.371 23.0625C111.934 23.6875 112.376 24.4115 112.699 25.2344C113.022 26.0573 113.267 26.9271 113.434 27.8438C113.694 29.2812 113.824 31.1198 113.824 33.3594L113.793 35.2656L114.746 35.2344ZM123.496 23.5312C122.965 23.6146 122.251 23.6562 121.355 23.6562H121.23V35.4062C121.751 35.4062 122.199 35.4062 122.574 35.4062C122.96 35.4062 123.267 35.4167 123.496 35.4375V23.5312ZM121.387 21.9844C122.512 21.9844 123.491 21.901 124.324 21.7344C124.564 21.7344 124.762 21.8229 124.918 22C125.085 22.1667 125.168 22.3542 125.168 22.5625V24.1719C126.387 22.3802 128.059 21.4844 130.184 21.4844C132.319 21.4844 133.71 22.7969 134.355 25.4219C134.585 26.3177 134.699 27.1875 134.699 28.0312C134.699 28.875 134.673 29.6094 134.621 30.2344C134.569 30.849 134.501 31.4635 134.418 32.0781C134.272 33.2969 134.09 34.349 133.871 35.2344C134.267 35.2552 134.673 35.276 135.09 35.2969C135.517 35.3177 135.897 35.3438 136.23 35.375C136.835 35.4479 137.137 35.7552 137.137 36.2969C137.116 36.5052 137.022 36.6823 136.855 36.8281C136.689 36.9635 136.501 37.0312 136.293 37.0312H136.23C135.23 36.9271 134.137 36.875 132.949 36.875C131.772 36.875 130.668 36.9896 129.637 37.2188C129.418 37.2188 129.225 37.1354 129.059 36.9688C128.892 36.7917 128.809 36.6042 128.809 36.4062C128.809 36.2083 128.871 36.0312 128.996 35.875C129.132 35.7188 129.355 35.6146 129.668 35.5625C130.137 35.4688 130.97 35.3698 132.168 35.2656C132.512 34.0781 132.746 32.7865 132.871 31.3906C132.996 29.9844 133.059 29.026 133.059 28.5156C133.059 24.9115 132.1 23.1094 130.184 23.1094C128.809 23.1094 127.616 23.7396 126.605 25C125.647 26.1771 125.168 27.4062 125.168 28.6875V28.7188L125.137 35.5938C125.324 35.6146 125.507 35.6354 125.684 35.6562C125.861 35.6667 126.043 35.6875 126.23 35.7188C126.428 35.7396 126.595 35.8281 126.73 35.9844C126.876 36.1302 126.949 36.3125 126.949 36.5312C126.949 36.75 126.861 36.9427 126.684 37.1094C126.517 37.276 126.371 37.3594 126.246 37.3594C126.121 37.3594 126.048 37.3438 126.027 37.3125C124.152 37.125 122.861 37.0312 122.152 37.0312C120.767 37.0312 119.673 37.1042 118.871 37.25C118.069 37.4062 117.59 37.4844 117.434 37.4844C117.288 37.4844 117.142 37.3958 116.996 37.2188C116.85 37.0417 116.777 36.8542 116.777 36.6562C116.777 36.4583 116.835 36.2812 116.949 36.125C117.064 35.9688 117.267 35.8646 117.559 35.8125C118.142 35.6979 118.819 35.6042 119.59 35.5312V23.5938C118.194 23.5312 117.397 23.4583 117.199 23.375C116.991 23.3542 116.819 23.2656 116.684 23.1094C116.559 22.9531 116.496 22.7604 116.496 22.5312C116.496 22.3021 116.585 22.1146 116.762 21.9688C116.939 21.8125 117.085 21.7344 117.199 21.7344C117.324 21.7344 117.392 21.7396 117.402 21.75C117.423 21.7604 117.548 21.776 117.777 21.7969C118.007 21.8177 118.303 21.8438 118.668 21.875C119.533 21.9479 120.439 21.9844 121.387 21.9844ZM144.199 16.2344C143.522 16.2969 142.809 16.3281 142.059 16.3281H141.934V35.2031H144.199V16.2344ZM140.309 16.2969L138.387 16.0781C138.178 16.0469 138.007 15.9531 137.871 15.7969C137.746 15.6406 137.684 15.4479 137.684 15.2188C137.684 14.9792 137.777 14.7917 137.965 14.6562C138.152 14.5104 138.335 14.4375 138.512 14.4375H138.605C138.616 14.4375 138.71 14.4531 138.887 14.4844C139.064 14.5052 139.303 14.5312 139.605 14.5625C140.355 14.6562 141.184 14.7031 142.09 14.7031C143.204 14.7031 143.954 14.6615 144.34 14.5781C144.725 14.4844 144.996 14.4375 145.152 14.4375C145.319 14.4375 145.48 14.526 145.637 14.7031C145.793 14.8698 145.871 15.0573 145.871 15.2656L145.84 35.375C146.132 35.4062 146.361 35.4375 146.527 35.4688C146.704 35.4896 146.85 35.5104 146.965 35.5312C147.09 35.5417 147.246 35.5677 147.434 35.6094C147.632 35.651 147.793 35.7448 147.918 35.8906C148.043 36.0365 148.105 36.2188 148.105 36.4375C148.105 36.6458 148.017 36.8281 147.84 36.9844C147.673 37.1406 147.486 37.2188 147.277 37.2188H147.121C144.236 36.7083 141.387 36.7188 138.574 37.25H138.418C138.158 37.25 137.96 37.1667 137.824 37C137.689 36.8438 137.621 36.6615 137.621 36.4531C137.621 36.0156 137.835 35.7396 138.262 35.625C138.887 35.5208 139.569 35.4375 140.309 35.375V16.2969ZM155.746 23.0156C153.007 24.0052 151.637 26.0833 151.637 29.25C151.637 31.2396 152.324 32.9062 153.699 34.25C154.126 34.6667 154.616 35.0156 155.168 35.2969C154.272 33.9635 153.824 32.1406 153.824 29.8281C153.824 28.1927 153.944 26.974 154.184 26.1719C154.559 24.901 155.079 23.849 155.746 23.0156ZM155.48 29.1562C156.647 29.5208 157.986 29.7031 159.496 29.7031C161.007 29.7031 162.475 29.3854 163.902 28.75V28.4844C163.902 25.9635 163.095 24.224 161.48 23.2656C160.918 22.9323 160.241 22.7083 159.449 22.5938C156.908 22.8854 155.585 25.0729 155.48 29.1562ZM165.527 28.4531L165.496 29.3594C165.392 30.224 164.017 30.8385 161.371 31.2031C160.527 31.3177 159.632 31.375 158.684 31.375C157.746 31.375 156.689 31.2135 155.512 30.8906C155.741 33.2552 156.533 34.8542 157.887 35.6875C158.387 35.9896 158.876 36.1406 159.355 36.1406C159.845 36.1406 160.257 36.1094 160.59 36.0469C160.923 35.974 161.251 35.875 161.574 35.75C162.303 35.4479 162.814 35.0833 163.105 34.6562C163.283 34.4479 163.486 34.3438 163.715 34.3438C163.954 34.3438 164.158 34.4323 164.324 34.6094C164.491 34.776 164.574 34.9688 164.574 35.1875C164.574 35.3958 164.507 35.5625 164.371 35.6875C163.923 36.3854 163.09 36.9375 161.871 37.3438C159.611 38.0833 157.439 38.0208 155.355 37.1562C153.168 36.2604 151.616 34.75 150.699 32.625C150.241 31.5833 150.012 30.4323 150.012 29.1719C150.012 27.901 150.21 26.75 150.605 25.7188C151.001 24.6771 151.564 23.8021 152.293 23.0938C153.783 21.6354 155.84 20.9062 158.465 20.9062C163.173 21.1042 165.527 23.6198 165.527 28.4531ZM169.105 40.5781C169.105 40.2552 168.991 39.9844 168.762 39.7656C168.543 39.5469 168.272 39.4375 167.949 39.4375C167.626 39.4375 167.35 39.5469 167.121 39.7656C166.902 39.9844 166.793 40.2552 166.793 40.5781C166.793 40.901 166.902 41.1719 167.121 41.3906C167.35 41.6198 167.626 41.7344 167.949 41.7344C168.272 41.7344 168.543 41.6198 168.762 41.3906C168.991 41.1719 169.105 40.901 169.105 40.5781ZM182.355 22.25C182.147 22.2708 181.939 22.2812 181.73 22.2812H180.043C179.043 26.625 178.152 30.0781 177.371 32.6406C176.6 35.2031 176.095 36.8177 175.855 37.4844C174.71 40.6198 173.47 42.8698 172.137 44.2344C174.158 43.5156 175.809 41.9375 177.09 39.5C177.663 38.4167 178.09 37.4479 178.371 36.5938C178.652 35.7292 178.892 34.9688 179.09 34.3125C179.288 33.6562 179.491 32.9583 179.699 32.2188C179.918 31.4688 180.132 30.7083 180.34 29.9375C180.548 29.1667 180.751 28.4062 180.949 27.6562C181.158 26.8958 181.345 26.1823 181.512 25.5156C181.689 24.8385 181.85 24.2188 181.996 23.6562C182.142 23.0938 182.262 22.625 182.355 22.25ZM177.262 20.4219C178.387 20.5677 179.678 20.6406 181.137 20.6406C182.595 20.6406 183.897 20.5677 185.043 20.4219H185.137C185.376 20.4219 185.574 20.5104 185.73 20.6875C185.887 20.8542 185.965 21.0417 185.965 21.25C185.965 21.4583 185.892 21.6406 185.746 21.7969C185.611 21.9531 185.439 22.0469 185.23 22.0781C185.033 22.099 184.835 22.1198 184.637 22.1406C184.449 22.151 184.251 22.1667 184.043 22.1875C183.97 22.4792 183.866 22.8906 183.73 23.4219C183.605 23.9427 183.454 24.5417 183.277 25.2188C183.1 25.8958 182.908 26.6302 182.699 27.4219C182.501 28.2135 182.293 29.0208 182.074 29.8438C181.855 30.6667 181.632 31.4844 181.402 32.2969C181.173 33.1094 180.949 33.875 180.73 34.5938C180.272 36.1562 179.861 37.375 179.496 38.25C179.142 39.125 178.668 40.0469 178.074 41.0156C177.491 41.9948 176.814 42.8646 176.043 43.625C174.345 45.3125 172.449 46.1562 170.355 46.1562C168.835 46.1562 167.574 45.7708 166.574 45C165.47 44.1458 164.918 43.026 164.918 41.6406C164.918 40.6094 165.178 39.7292 165.699 39C166.272 38.1979 167.022 37.7969 167.949 37.7969C168.72 37.7969 169.376 38.0677 169.918 38.6094C170.46 39.151 170.73 39.8073 170.73 40.5781C170.73 41.3385 170.46 42 169.918 42.5625C169.387 43.1042 168.73 43.375 167.949 43.375C167.637 43.375 167.319 43.3177 166.996 43.2031C167.527 43.8698 168.079 44.2031 168.652 44.2031C169.236 44.2031 169.736 44.0625 170.152 43.7812C170.569 43.5104 170.96 43.1562 171.324 42.7188C171.699 42.2812 172.043 41.7917 172.355 41.25C172.668 40.7083 172.949 40.1667 173.199 39.625C173.783 38.3958 174.173 37.4531 174.371 36.7969C174.579 36.1302 174.73 35.6562 174.824 35.375C172.855 32.6875 171.408 30.0052 170.48 27.3281C169.876 25.6094 169.543 24.0208 169.48 22.5625C167.772 22.5625 166.803 22.4375 166.574 22.1875C166.428 22.0312 166.355 21.8438 166.355 21.625C166.355 21.4062 166.439 21.2188 166.605 21.0625C166.783 20.8958 166.975 20.8125 167.184 20.8125H167.277C167.861 20.8958 168.538 20.9375 169.309 20.9375C170.736 20.9375 171.767 20.8854 172.402 20.7812C173.038 20.6667 173.423 20.6094 173.559 20.6094C173.704 20.6094 173.855 20.6979 174.012 20.875C174.178 21.0521 174.262 21.2396 174.262 21.4375C174.262 21.6354 174.194 21.8125 174.059 21.9688C173.934 22.125 173.71 22.2292 173.387 22.2812C172.626 22.3854 171.871 22.4688 171.121 22.5312C171.173 24.4792 171.876 26.849 173.23 29.6406C173.783 30.7969 174.517 32.0469 175.434 33.3906C176.434 29.9844 177.418 26.25 178.387 22.1875C178.178 22.1667 177.96 22.151 177.73 22.1406C177.512 22.1198 177.293 22.099 177.074 22.0781C176.866 22.0469 176.689 21.9531 176.543 21.7969C176.408 21.6406 176.34 21.4479 176.34 21.2188C176.34 20.9896 176.428 20.8021 176.605 20.6562C176.783 20.5 176.97 20.4219 177.168 20.4219H177.262Z" fill="white"/>
</g>
<defs>
<clipPath id="clip0_258_1295">
<rect width="196" height="50" rx="25" fill="white"/>
</clipPath>
</defs>
</svg>
