<svg width="200" height="200" viewBox="0 0 200 200" fill="none" xmlns="http://www.w3.org/2000/svg">
<circle cx="100" cy="100" r="100" fill="black"/>
<path d="M102.848 55.784C103.189 56.2107 103.232 56.552 102.976 56.808C102.805 57.064 102.592 57.4053 102.336 57.832C101.995 58.2587 101.696 58.6 101.44 58.856C101.269 59.0267 100.928 59.0267 100.416 58.856C99.904 58.6853 99.648 58.472 99.648 58.216C99.648 57.8747 99.648 57.4053 99.648 56.808C99.648 56.296 99.6907 55.912 99.776 55.656C99.8613 55.3147 100.16 55.1013 100.672 55.016C101.611 54.76 102.336 55.016 102.848 55.784ZM95.552 56.04C96.064 56.4667 96.192 57.0213 95.936 57.704C95.7653 58.3013 95.3387 58.6 94.656 58.6C94.144 58.6 93.76 58.3013 93.504 57.704C93.4187 57.2773 93.3333 56.9787 93.248 56.808C93.248 56.552 93.4187 56.296 93.76 56.04C94.3573 55.6133 94.9547 55.6133 95.552 56.04ZM111.04 56.04L110.912 57.32L109.888 57.448L108.992 56.68L110.016 56.04H111.04ZM87.36 58.088C87.5307 58.5147 87.36 58.984 86.848 59.496C86.4213 59.8373 86.1227 60.136 85.952 60.392C85.7813 60.648 85.4827 60.648 85.056 60.392C84.544 60.0507 84.2453 59.752 84.16 59.496C84.16 59.1547 84.2027 58.728 84.288 58.216C84.544 57.448 85.0987 57.0213 85.952 56.936C86.5493 56.936 87.0187 57.32 87.36 58.088ZM115.648 57.448L116.544 58.216L116.032 59.24L115.008 58.856L114.624 57.832L115.648 57.448ZM91.328 58.6V59.752L90.304 60.136L89.408 59.24L90.048 57.96L91.328 58.6ZM104.896 59.112L105.024 60.392L103.872 60.264L103.104 59.24L104.128 58.472L104.896 59.112ZM121.024 59.368L120.512 60.776L119.36 60.264L118.848 59.496L119.744 58.6L121.024 59.368ZM114.24 61.16C114.667 62.0133 114.624 62.6107 114.112 62.952C113.685 63.2933 113.131 63.8053 112.448 64.488C111.851 65 111.381 65.384 111.04 65.64C110.699 65.8107 110.187 65.6827 109.504 65.256C108.821 64.9147 108.437 64.5733 108.352 64.232C108.352 63.8053 108.395 63.208 108.48 62.44C108.651 61.5013 108.736 60.7333 108.736 60.136C108.821 59.5387 109.333 59.1547 110.272 58.984C111.381 58.8133 112.192 58.8987 112.704 59.24C113.216 59.496 113.728 60.136 114.24 61.16ZM97.984 59.624C98.3253 59.88 98.496 60.136 98.496 60.392C98.496 60.5627 98.4533 60.8613 98.368 61.288C98.2827 62.056 97.984 62.4827 97.472 62.568C96.96 62.6533 96.5333 62.7387 96.192 62.824C95.936 62.824 95.68 62.568 95.424 62.056C95.168 61.6293 95.168 61.3307 95.424 61.16C95.68 60.904 95.9787 60.6053 96.32 60.264C96.6613 59.9227 96.9173 59.7093 97.088 59.624C97.2587 59.4533 97.5573 59.4533 97.984 59.624ZM82.368 59.88L83.008 60.648L82.752 61.8L81.6 61.416L81.344 60.392L82.368 59.88ZM102.208 60.392L102.848 61.8L101.824 62.952L100.416 62.056L100.544 60.392H102.208ZM77.504 61.8L78.272 63.08L76.864 63.72L75.968 62.824V61.288L77.504 61.8ZM86.976 62.312C88.3413 62.4827 89.1947 62.9093 89.536 63.592C89.9627 64.1893 90.304 65.128 90.56 66.408C90.816 67.6027 90.7733 68.4987 90.432 69.096C90.176 69.608 89.536 70.1627 88.512 70.76C87.5733 71.272 86.848 71.3573 86.336 71.016C85.9093 70.5893 85.312 70.0347 84.544 69.352C83.9467 68.7547 83.52 68.2427 83.264 67.816C83.0933 67.3893 83.1787 66.792 83.52 66.024C84.032 64.8293 84.416 63.8907 84.672 63.208C84.928 62.5253 85.696 62.2267 86.976 62.312ZM81.088 62.312L81.6 63.464L80.576 64.232L79.424 63.336L80.192 62.44L81.088 62.312ZM117.312 62.44L118.592 63.464L118.08 65.128L116.032 65L115.648 63.08L117.312 62.44ZM95.04 63.208L94.016 64.232L92.992 64.104L92.608 62.952L93.76 62.568L95.04 63.208ZM129.984 67.048C130.411 68.2427 130.283 69.0533 129.6 69.48C129.003 69.8213 128.192 70.3333 127.168 71.016C126.144 71.784 125.333 72.4667 124.736 73.064C124.139 73.576 123.285 73.448 122.176 72.68C121.067 71.8267 120.555 71.016 120.64 70.248C120.811 69.48 121.152 68.456 121.664 67.176C122.091 65.8107 122.475 64.7867 122.816 64.104C123.157 63.4213 124.053 63.08 125.504 63.08C126.955 63.08 127.936 63.3787 128.448 63.976C129.045 64.5733 129.557 65.5973 129.984 67.048ZM73.28 64.36C73.6213 64.7867 73.8347 65.128 73.92 65.384C74.0907 65.64 74.048 65.9813 73.792 66.408C73.536 66.8347 73.2373 67.048 72.896 67.048C72.64 66.9627 72.256 66.8773 71.744 66.792C71.1467 66.6213 70.8053 66.1947 70.72 65.512C70.72 65 71.0613 64.616 71.744 64.36C72.0853 64.1893 72.3413 64.104 72.512 64.104C72.768 64.0187 73.024 64.104 73.28 64.36ZM98.496 64.36L99.648 65.64L98.496 66.92L97.344 66.152V65L98.496 64.36ZM79.296 65.512L78.784 66.536L77.504 66.408L77.248 65.128L78.4 64.488L79.296 65.512ZM104 66.536L104.384 68.072L102.848 67.688L102.336 66.792L102.976 65.64L104 66.536ZM115.904 66.408C116.928 66.5787 117.653 66.792 118.08 67.048C118.592 67.304 118.976 67.944 119.232 68.968C119.403 70.0773 119.36 70.888 119.104 71.4C118.848 71.912 118.251 72.424 117.312 72.936C116.459 73.3627 115.819 73.3627 115.392 72.936C115.051 72.5093 114.539 71.9973 113.856 71.4C113.259 70.8027 112.832 70.3333 112.576 69.992C112.405 69.5653 112.491 69.0107 112.832 68.328C113.259 67.4747 113.643 66.92 113.984 66.664C114.411 66.408 115.051 66.3227 115.904 66.408ZM69.696 66.92L70.592 67.816L70.208 68.84L69.184 68.712L68.544 67.688L69.696 66.92ZM107.968 68.84L108.352 69.736L107.584 70.76L106.816 69.864L106.688 68.712L107.968 68.84ZM105.024 70.248L105.408 71.4L104.256 71.912L102.848 71.144L103.616 69.48L105.024 70.248ZM97.728 69.992C98.9227 70.1627 99.8613 70.248 100.544 70.248C101.312 70.248 101.781 70.8453 101.952 72.04C102.208 73.32 102.123 74.216 101.696 74.728C101.269 75.24 100.459 75.7947 99.264 76.392C98.24 76.9893 97.3867 77.2453 96.704 77.16C96.1067 76.9893 95.3813 76.4773 94.528 75.624C93.76 74.9413 93.4187 74.3013 93.504 73.704C93.6747 73.1067 94.016 72.3387 94.528 71.4C94.8693 70.632 95.2533 70.2053 95.68 70.12C96.192 69.9493 96.8747 69.9067 97.728 69.992ZM67.904 70.888L67.264 72.296H66.24L65.344 71.272L66.496 70.248L67.904 70.888ZM111.552 71.912L110.656 73.064L109.504 72.68L109.248 71.4L110.528 71.016L111.552 71.912ZM133.952 72.424C134.123 72.936 133.995 73.448 133.568 73.96C133.227 74.3013 132.971 74.5573 132.8 74.728C132.629 74.8987 132.373 74.8987 132.032 74.728C131.435 74.472 131.179 73.9173 131.264 73.064C131.349 72.552 131.435 72.168 131.52 71.912C131.605 71.656 131.861 71.4853 132.288 71.4C132.8 71.3147 133.141 71.4 133.312 71.656C133.483 71.8267 133.696 72.0827 133.952 72.424ZM136.896 72.68L137.152 73.96L136.128 74.216L135.36 73.832L135.616 72.808L136.896 72.68ZM76.096 73.064C78.2293 73.064 79.936 73.064 81.216 73.064C82.5813 73.064 83.5627 74.088 84.16 76.136C84.928 78.6107 85.1413 80.5307 84.8 81.896C84.4587 83.176 83.2213 84.5413 81.088 85.992C79.1253 87.4427 77.504 87.9973 76.224 87.656C74.944 87.2293 73.3227 86.2907 71.36 84.84C69.824 83.6453 69.2267 82.536 69.568 81.512C69.9947 80.4027 70.5067 78.9093 71.104 77.032C71.616 75.496 72.1707 74.472 72.768 73.96C73.3653 73.3627 74.4747 73.064 76.096 73.064ZM65.088 73.448V74.216L64.448 74.728L63.552 74.088L64.192 73.192L65.088 73.448ZM109.888 75.24C110.144 76.0933 110.187 76.7333 110.016 77.16C109.931 77.5013 109.589 77.928 108.992 78.44C108.395 78.952 107.883 79.1227 107.456 78.952C107.115 78.7813 106.603 78.4827 105.92 78.056C105.323 77.6293 104.853 77.288 104.512 77.032C104.256 76.6907 104.256 76.1787 104.512 75.496C104.683 74.728 104.939 74.216 105.28 73.96C105.707 73.704 106.304 73.576 107.072 73.576C107.925 73.576 108.523 73.704 108.864 73.96C109.205 74.1307 109.547 74.5573 109.888 75.24ZM88.64 73.704L89.28 74.984L88.896 76.136L87.616 75.624L87.36 74.344L88.64 73.704ZM129.216 74.984L129.472 76.136L128.192 76.648L127.552 75.752L128.064 74.856L129.216 74.984ZM113.728 75.88C114.24 76.0507 114.624 76.1787 114.88 76.264C115.221 76.264 115.392 76.52 115.392 77.032C115.307 78.056 114.795 78.696 113.856 78.952C113.344 79.0373 113.003 78.952 112.832 78.696C112.747 78.3547 112.576 77.9707 112.32 77.544C112.149 77.2027 112.021 76.9467 111.936 76.776C111.851 76.52 111.936 76.2213 112.192 75.88C112.448 75.624 112.661 75.5387 112.832 75.624C113.088 75.624 113.387 75.7093 113.728 75.88ZM92.352 75.88L93.504 77.288L91.84 78.696L90.432 77.416L90.688 75.752L92.352 75.88ZM120.896 77.416C121.152 77.928 121.067 78.3973 120.64 78.824C120.213 79.1653 119.915 79.5067 119.744 79.848C119.573 80.104 119.275 80.104 118.848 79.848C118.336 79.5067 118.037 79.208 117.952 78.952C117.952 78.6107 117.995 78.1413 118.08 77.544C118.251 76.9467 118.379 76.52 118.464 76.264C118.635 76.008 119.019 75.8373 119.616 75.752C120.128 75.6667 120.427 75.8373 120.512 76.264C120.597 76.6053 120.725 76.9893 120.896 77.416ZM133.44 76.52L134.208 78.056L133.312 79.208L131.904 78.568L132.288 77.416L133.44 76.52ZM126.528 77.672C127.125 78.0133 127.509 78.3547 127.68 78.696C127.936 78.952 128.021 79.4213 127.936 80.104C127.765 80.7013 127.509 81.0853 127.168 81.256C126.827 81.3413 126.357 81.4267 125.76 81.512C124.736 81.5973 124.011 81.256 123.584 80.488C123.328 79.8053 123.115 79.2507 122.944 78.824C122.773 78.3973 122.944 77.928 123.456 77.416C124.053 76.904 124.523 76.7333 124.864 76.904C125.291 77.0747 125.845 77.3307 126.528 77.672ZM101.568 77.416L102.464 78.184L101.568 79.08H100.416V77.8L101.568 77.416ZM89.536 77.928C89.8773 78.2693 90.0053 78.568 89.92 78.824C89.8347 79.08 89.7067 79.4213 89.536 79.848C89.28 80.4453 88.8107 80.7013 88.128 80.616C87.7013 80.5307 87.36 80.488 87.104 80.488C86.848 80.4027 86.6773 80.1467 86.592 79.72C86.5067 79.2933 86.5493 79.0373 86.72 78.952C86.976 78.7813 87.3173 78.568 87.744 78.312C88.0853 78.056 88.384 77.8427 88.64 77.672C88.896 77.5013 89.1947 77.5867 89.536 77.928ZM64.32 77.928C64.7467 78.2693 64.9173 78.696 64.832 79.208C64.576 79.976 64.2347 80.36 63.808 80.36C62.8693 80.4453 62.3147 80.1893 62.144 79.592C61.9733 79.1653 61.9733 78.8667 62.144 78.696C62.3147 78.5253 62.5707 78.312 62.912 78.056C63.3387 77.7147 63.808 77.672 64.32 77.928ZM138.944 78.952L139.072 80.36L137.92 80.744L137.024 80.104L137.536 78.824L138.944 78.952ZM135.616 79.592L135.744 80.872L135.36 82.024L134.336 81.128L134.208 79.976L135.616 79.592ZM111.168 79.976L112.448 81.128L111.424 82.28L110.144 81.896L110.016 80.744L111.168 79.976ZM132.544 80.616L133.312 81.64L132.544 82.408L131.392 82.536V81.256L132.544 80.616ZM118.336 81.512L118.464 82.664H117.184L116.8 81.64L117.568 80.872L118.336 81.512ZM91.712 83.048L91.2 84.2L90.048 83.56V82.408L91.328 81.512L91.712 83.048ZM65.6 83.048L64.832 84.2H63.552L63.296 82.792L64.448 81.768L65.6 83.048ZM89.536 86.504C90.2187 87.016 90.4747 87.528 90.304 88.04C90.2187 88.4667 90.048 89.064 89.792 89.832C89.4507 90.7707 89.2373 91.5813 89.152 92.264C89.0667 92.8613 88.512 93.16 87.488 93.16C86.5493 93.16 85.9947 92.8613 85.824 92.264C85.7387 91.5813 85.568 90.7707 85.312 89.832C85.056 88.8933 84.8 88.168 84.544 87.656C84.3733 87.144 84.672 86.5893 85.44 85.992C86.2933 85.3947 86.976 85.1813 87.488 85.352C88 85.5227 88.6827 85.9067 89.536 86.504ZM62.656 86.12L63.552 87.272L62.656 88.296L61.376 88.168L61.248 86.76L62.656 86.12ZM96.192 86.76L97.216 87.912L95.936 88.808L94.272 88.68L94.912 87.144L96.192 86.76ZM65.728 87.4L66.24 88.296L65.856 89.448L64.704 88.936L64.576 87.656L65.728 87.4ZM100.032 88.808L101.44 89.448L100.8 90.984L99.392 90.6L98.624 89.32L100.032 88.808ZM113.856 90.344L113.728 91.368L112.576 91.24L112.064 89.96L113.344 89.192L113.856 90.344ZM69.44 90.088L69.312 91.24L68.032 91.496L67.52 90.216L68.544 89.448L69.44 90.088ZM72.768 90.6L73.664 91.368L72.512 92.136L71.36 91.752L71.488 90.344L72.768 90.6ZM63.168 90.344L63.552 91.112L63.168 91.88H62.016L62.272 90.728L63.168 90.344ZM97.472 90.728L97.984 91.752L97.216 92.264L96.448 92.008L96.192 90.856L97.472 90.728ZM82.368 94.184C82.4533 95.464 82.3253 96.4027 81.984 97C81.6427 97.512 80.9173 97.9813 79.808 98.408C78.6987 98.92 77.8027 99.0907 77.12 98.92C76.5227 98.7493 75.84 98.1947 75.072 97.256C74.2187 96.3173 73.664 95.5067 73.408 94.824C73.2373 94.1413 73.4933 93.2453 74.176 92.136C74.7733 91.112 75.4133 90.6427 76.096 90.728C76.7787 90.8133 77.7173 90.984 78.912 91.24C80.0213 91.496 80.832 91.7947 81.344 92.136C81.9413 92.392 82.2827 93.0747 82.368 94.184ZM116.8 91.24L117.696 92.264L116.672 93.032L115.52 92.776L115.648 91.624L116.8 91.24ZM66.752 92.136L66.112 93.16L65.216 92.648L65.344 91.752L66.112 91.368L66.752 92.136ZM110.4 93.672C110.997 95.0373 111.168 96.104 110.912 96.872C110.741 97.5547 110.101 98.408 108.992 99.432C108.053 100.456 107.2 100.968 106.432 100.968C105.749 100.883 104.811 100.541 103.616 99.944C102.336 99.2613 101.483 98.6213 101.056 98.024C100.629 97.4267 100.544 96.4453 100.8 95.08C100.971 93.8 101.397 93.032 102.08 92.776C102.763 92.4347 103.787 92.1787 105.152 92.008C106.517 91.8373 107.584 91.7947 108.352 91.88C109.12 91.88 109.803 92.4773 110.4 93.672ZM69.696 92.52L70.464 93.672L70.336 95.208L68.8 94.952L68.16 93.416L69.696 92.52ZM121.664 93.416L122.176 94.696L121.28 95.592L119.744 95.336L120.384 93.8L121.664 93.416ZM65.728 94.568V95.464L64.832 95.848L63.68 95.08L64.576 93.8L65.728 94.568ZM98.496 94.568L97.856 95.464L96.96 95.208V94.44L97.6 93.8L98.496 94.568ZM88.128 94.184L88.512 95.464L88 96.488L86.976 95.976L86.592 94.696L88.128 94.184ZM116.544 95.208L116.416 96.232L115.392 95.848L115.136 94.952L116.032 94.568L116.544 95.208ZM126.656 96.488L125.76 97.896H124.096L123.84 95.976L125.504 95.464L126.656 96.488ZM96.32 99.56C96.32 100.328 96.2347 100.925 96.064 101.352C95.8933 101.693 95.4667 101.992 94.784 102.248C94.016 102.504 93.4187 102.589 92.992 102.504C92.6507 102.419 92.224 102.077 91.712 101.48C91.0293 100.541 90.4747 99.8587 90.048 99.432C89.6213 98.92 89.7067 98.1947 90.304 97.256C90.9013 96.3173 91.4987 95.8907 92.096 95.976C92.7787 95.976 93.6747 96.1467 94.784 96.488C95.6373 96.744 96.1067 97.128 96.192 97.64C96.2773 98.0667 96.32 98.7067 96.32 99.56ZM69.312 97.256C69.9093 97.3413 70.4213 97.384 70.848 97.384C71.2747 97.384 71.5307 97.6827 71.616 98.28C71.7013 99.048 71.6587 99.6453 71.488 100.072C71.3173 100.413 70.8907 100.755 70.208 101.096C69.5253 101.437 68.9707 101.565 68.544 101.48C68.2027 101.309 67.776 100.968 67.264 100.456C66.752 100.029 66.624 99.6453 66.88 99.304C67.136 98.9627 67.392 98.4933 67.648 97.896C67.9893 97.384 68.544 97.1707 69.312 97.256ZM114.752 97.512L115.136 98.664L113.984 99.304L112.448 98.408L113.6 97.256L114.752 97.512ZM123.328 101.608C123.84 102.547 124.096 103.315 124.096 103.912C124.181 104.424 123.84 105.064 123.072 105.832C122.133 106.685 121.365 107.24 120.768 107.496C120.171 107.752 119.36 107.581 118.336 106.984C117.312 106.472 116.8 105.875 116.8 105.192C116.885 104.509 117.013 103.613 117.184 102.504C117.44 101.139 117.568 100.029 117.568 99.176C117.568 98.3227 118.251 97.768 119.616 97.512C120.981 97.3413 121.792 97.6827 122.048 98.536C122.304 99.304 122.731 100.328 123.328 101.608ZM136.256 99.304C136.427 99.816 136.427 100.2 136.256 100.456C136.171 100.712 135.915 101.011 135.488 101.352C134.976 101.779 134.379 101.779 133.696 101.352C132.843 100.84 132.501 100.285 132.672 99.688C132.928 98.92 133.483 98.4933 134.336 98.408C134.848 98.408 135.232 98.4507 135.488 98.536C135.829 98.6213 136.085 98.8773 136.256 99.304ZM130.112 100.072C130.453 100.584 130.752 101.011 131.008 101.352C131.349 101.608 131.349 101.949 131.008 102.376C130.24 103.4 129.259 103.699 128.064 103.272C126.955 102.845 126.4 101.992 126.4 100.712C126.4 100.115 126.571 99.7733 126.912 99.688C127.339 99.6027 127.851 99.4747 128.448 99.304C129.045 99.048 129.6 99.304 130.112 100.072ZM88 100.712C88.5973 101.651 88.7253 102.419 88.384 103.016C88.128 103.528 87.616 104.253 86.848 105.192C86.08 106.045 85.44 106.728 84.928 107.24C84.416 107.752 83.648 107.752 82.624 107.24C81.344 106.728 80.4907 106.173 80.064 105.576C79.7227 104.979 79.5947 103.997 79.68 102.632C79.7653 101.523 80.1493 100.968 80.832 100.968C81.6 100.883 82.5387 100.712 83.648 100.456C84.672 100.2 85.4827 99.944 86.08 99.688C86.7627 99.432 87.4027 99.7733 88 100.712ZM78.4 100.456L78.784 101.352L78.528 102.248L77.248 102.12L77.504 100.968L78.4 100.456ZM112.96 100.584L114.24 101.352L113.344 102.504L112.064 102.376L111.68 101.096L112.96 100.584ZM73.92 102.632L72.896 103.784L71.36 103.4V101.864L72.896 101.352L73.92 102.632ZM102.72 103.272C102.72 103.784 102.549 104.083 102.208 104.168C101.867 104.253 101.44 104.381 100.928 104.552C100.501 104.637 100.16 104.723 99.904 104.808C99.7333 104.808 99.4773 104.637 99.136 104.296C98.7093 103.613 98.7093 102.931 99.136 102.248C99.7333 101.565 100.373 101.352 101.056 101.608C101.653 101.779 102.08 101.949 102.336 102.12C102.592 102.291 102.72 102.675 102.72 103.272ZM109.376 101.736L110.4 102.76L109.504 103.784L108.608 103.528L107.968 102.376L109.376 101.736ZM133.312 103.272C133.653 103.613 133.739 103.912 133.568 104.168C133.397 104.424 133.184 104.765 132.928 105.192C132.757 105.448 132.629 105.661 132.544 105.832C132.459 106.003 132.203 106.088 131.776 106.088C130.923 105.917 130.453 105.533 130.368 104.936C130.283 104.253 130.581 103.699 131.264 103.272C131.776 103.101 132.16 102.973 132.416 102.888C132.672 102.803 132.971 102.931 133.312 103.272ZM105.92 103.4V104.04L105.152 104.808L104.64 103.912L105.152 103.144L105.92 103.4ZM77.12 104.168L78.528 104.808L77.76 106.344L76.224 106.216L75.712 104.68L77.12 104.168ZM138.048 105.576L138.176 106.472L137.024 106.984L136.768 105.96L137.152 105.064L138.048 105.576ZM104.64 105.704C105.323 105.96 105.621 106.301 105.536 106.728C105.536 107.155 105.536 107.752 105.536 108.52C105.536 109.288 105.579 109.928 105.664 110.44C105.749 110.867 105.451 111.208 104.768 111.464C104 111.72 103.445 111.72 103.104 111.464C102.763 111.123 102.336 110.611 101.824 109.928C101.397 109.416 101.184 108.989 101.184 108.648C101.269 108.221 101.483 107.752 101.824 107.24C102.336 106.557 102.72 106.088 102.976 105.832C103.317 105.491 103.872 105.448 104.64 105.704ZM110.144 106.472C110.912 106.728 111.296 107.155 111.296 107.752C111.296 108.264 111.168 108.563 110.912 108.648C110.741 108.733 110.443 108.861 110.016 109.032C109.589 109.117 109.205 109.203 108.864 109.288C108.608 109.288 108.352 109.117 108.096 108.776C107.755 108.179 107.883 107.539 108.48 106.856C108.821 106.344 109.376 106.216 110.144 106.472ZM98.24 106.472L99.136 107.368L98.112 107.88L97.344 107.624V106.6L98.24 106.472ZM91.072 106.6L91.84 108.136L90.56 108.776L89.024 108.648L89.792 107.24L91.072 106.6ZM135.36 106.728V108.392L134.336 109.416L133.056 108.52L133.312 106.728H135.36ZM128.448 107.24C129.131 107.411 129.557 107.667 129.728 108.008C129.984 108.264 130.155 108.733 130.24 109.416C130.411 110.44 129.984 111.165 128.96 111.592C128.021 112.104 127.211 111.976 126.528 111.208C126.016 110.696 125.675 110.269 125.504 109.928C125.419 109.587 125.547 109.117 125.888 108.52C126.485 107.496 127.339 107.069 128.448 107.24ZM94.784 108.008L95.68 109.672L94.144 110.952L92.608 109.928L93.376 108.52L94.784 108.008ZM114.624 108.648L114.24 109.8L113.088 110.312L112.832 109.16L113.472 108.52L114.624 108.648ZM140.992 110.056C141.248 110.397 141.291 110.696 141.12 110.952C140.949 111.123 140.693 111.379 140.352 111.72C140.096 112.061 139.883 112.36 139.712 112.616C139.627 112.872 139.371 112.915 138.944 112.744C138.517 112.573 138.261 112.36 138.176 112.104C138.176 111.848 138.176 111.507 138.176 111.08C138.176 110.312 138.475 109.843 139.072 109.672C140.011 109.331 140.651 109.459 140.992 110.056ZM118.08 109.544L118.976 110.312L118.464 111.08L117.44 111.336L117.184 110.312L118.08 109.544ZM111.296 110.952L111.168 112.36L109.888 113.128L108.992 111.72L109.888 110.568L111.296 110.952ZM126.144 120.552C126.571 122.685 126.656 124.307 126.4 125.416C126.229 126.525 125.205 127.635 123.328 128.744C121.365 129.939 119.744 130.536 118.464 130.536C117.269 130.451 115.819 129.683 114.112 128.232C112.235 126.611 111.125 125.203 110.784 124.008C110.443 122.813 110.741 121.107 111.68 118.888C112.704 116.499 113.728 114.877 114.752 114.024C115.776 113.171 117.568 112.829 120.128 113C122.517 113.256 123.968 114.024 124.48 115.304C124.992 116.499 125.547 118.248 126.144 120.552ZM136.512 114.152C136.853 114.579 137.152 114.92 137.408 115.176C137.664 115.347 137.664 115.645 137.408 116.072C137.152 116.499 136.853 116.669 136.512 116.584C136.256 116.499 135.872 116.413 135.36 116.328C134.933 116.243 134.592 116.157 134.336 116.072C134.08 115.987 133.909 115.688 133.824 115.176C133.739 114.323 134.08 113.725 134.848 113.384C135.275 113.213 135.573 113.213 135.744 113.384C136 113.555 136.256 113.811 136.512 114.152ZM110.528 113.896L110.4 115.048L109.504 115.56L108.864 114.792L109.248 114.024L110.528 113.896ZM130.24 115.432L130.112 116.456H129.088L128.704 115.688L129.216 114.536L130.24 115.432ZM141.888 115.688L141.76 117.352L139.968 117.48L139.84 116.072L140.608 114.792L141.888 115.688ZM63.552 116.456L64.704 117.48L63.936 118.632L62.784 118.376L62.272 117.224L63.552 116.456ZM78.656 117.864L78.528 119.272L77.12 119.656L76.736 118.376L77.376 117.224L78.656 117.864ZM70.592 120.296C70.6773 120.808 70.72 121.235 70.72 121.576C70.72 121.832 70.464 122.131 69.952 122.472C69.0987 122.984 68.3307 122.899 67.648 122.216C67.0507 121.789 66.624 121.405 66.368 121.064C66.112 120.723 66.1547 120.253 66.496 119.656C66.8373 118.888 67.136 118.333 67.392 117.992C67.7333 117.651 68.3307 117.523 69.184 117.608C69.952 117.693 70.336 117.992 70.336 118.504C70.336 118.931 70.4213 119.528 70.592 120.296ZM134.976 118.12L135.36 119.4L134.72 120.168L133.696 119.784V118.632L134.976 118.12ZM86.848 118.632C87.4453 118.973 87.744 119.315 87.744 119.656C87.8293 119.997 87.8293 120.509 87.744 121.192C87.488 121.96 87.3173 122.6 87.232 123.112C87.1467 123.539 86.6773 123.795 85.824 123.88C84.9707 123.965 84.416 123.837 84.16 123.496C83.904 123.069 83.648 122.429 83.392 121.576C83.136 121.064 83.136 120.68 83.392 120.424C83.648 120.168 83.9893 119.827 84.416 119.4C84.928 118.973 85.312 118.675 85.568 118.504C85.9093 118.248 86.336 118.291 86.848 118.632ZM142.144 119.4L141.632 121.192L139.968 121.064L139.072 119.656L140.48 119.144L142.144 119.4ZM65.088 120.936C65.2587 121.448 65.216 121.832 64.96 122.088C64.7893 122.259 64.4907 122.515 64.064 122.856C63.552 123.368 62.9973 123.453 62.4 123.112C61.7173 122.771 61.4187 122.216 61.504 121.448C61.6747 120.936 61.8027 120.552 61.888 120.296C62.0587 120.04 62.4 119.869 62.912 119.784C63.936 119.699 64.6613 120.083 65.088 120.936ZM131.648 120.808L132.288 121.96L131.136 122.6L130.112 121.704L130.496 120.424L131.648 120.808ZM94.272 121.192V122.984H93.248L92.992 121.704L94.272 121.192ZM80.832 124.776C81.6853 126.141 82.1547 127.251 82.24 128.104C82.3253 128.872 81.856 129.853 80.832 131.048C79.808 132.243 78.8693 132.797 78.016 132.712C77.248 132.541 76.1813 132.157 74.816 131.56C73.3653 131.048 72.2987 130.579 71.616 130.152C70.9333 129.64 70.6347 128.616 70.72 127.08C70.8053 125.459 71.1467 124.349 71.744 123.752C72.4267 123.155 73.5787 122.643 75.2 122.216C76.6507 121.875 77.7173 121.875 78.4 122.216C79.168 122.557 79.9787 123.411 80.832 124.776ZM106.048 122.984L105.664 124.264H104.64L103.872 123.24L104.896 122.472L106.048 122.984ZM96.96 122.6L98.112 123.496L97.088 124.264L96.064 124.52L95.68 123.24L96.96 122.6ZM108.864 124.136L108.608 125.16L107.456 124.776L107.712 123.752L108.48 123.24L108.864 124.136ZM137.408 124.52C137.92 125.288 138.091 125.928 137.92 126.44C137.835 126.867 137.493 127.421 136.896 128.104C136.299 128.787 135.787 129.256 135.36 129.512C134.933 129.768 134.251 129.725 133.312 129.384C132.544 129.043 132.203 128.616 132.288 128.104C132.459 127.592 132.587 126.909 132.672 126.056C132.757 125.373 132.885 124.904 133.056 124.648C133.227 124.307 133.611 124.051 134.208 123.88C134.976 123.709 135.573 123.624 136 123.624C136.512 123.539 136.981 123.837 137.408 124.52ZM100.544 123.88L100.928 125.16L100.416 126.44L99.136 125.672V124.392L100.544 123.88ZM91.712 124.52L93.12 125.032L92.48 126.568L90.944 126.44L90.688 125.032L91.712 124.52ZM88 125.544C88.512 125.8 88.8107 126.099 88.896 126.44C88.9813 126.781 88.9813 127.251 88.896 127.848C88.7253 128.616 88.1707 129.085 87.232 129.256C86.72 129.341 86.3787 129.299 86.208 129.128C86.1227 128.872 85.952 128.531 85.696 128.104C85.44 127.592 85.568 127.08 86.08 126.568C86.5067 126.141 86.8053 125.8 86.976 125.544C87.1467 125.288 87.488 125.288 88 125.544ZM69.696 125.672V126.824L68.16 126.312L68.544 125.416L69.696 125.672ZM65.984 127.208C66.1547 127.891 66.1547 128.36 65.984 128.616C65.8133 128.872 65.472 129.171 64.96 129.512C64.192 130.024 63.424 129.981 62.656 129.384C62.2293 129.043 62.016 128.744 62.016 128.488C62.1013 128.147 62.2293 127.763 62.4 127.336C62.5707 126.824 62.7413 126.483 62.912 126.312C63.0827 126.056 63.424 125.928 63.936 125.928C64.5333 125.928 64.96 126.013 65.216 126.184C65.5573 126.269 65.8133 126.611 65.984 127.208ZM97.6 126.44L97.344 127.336L96.576 127.72L95.68 126.824L96.704 126.184L97.6 126.44ZM109.376 126.312L109.632 127.464L108.992 127.976L107.84 127.848L108.352 126.824L109.376 126.312ZM94.912 128.104L94.144 128.744L93.376 128.488L93.12 127.592L94.272 126.952L94.912 128.104ZM69.568 128.744V129.896L68.288 130.152L67.52 128.872L68.672 128.36L69.568 128.744ZM103.36 128.488C104.725 128.659 105.536 129.085 105.792 129.768C106.133 130.451 106.432 131.475 106.688 132.84C107.029 134.291 107.243 135.485 107.328 136.424C107.499 137.277 106.901 138.045 105.536 138.728C104.256 139.496 103.317 139.539 102.72 138.856C102.123 138.173 101.269 137.32 100.16 136.296C99.3067 135.528 98.7093 134.845 98.368 134.248C98.112 133.651 98.24 132.84 98.752 131.816C99.3493 130.536 99.904 129.64 100.416 129.128C101.013 128.531 101.995 128.317 103.36 128.488ZM131.008 130.664C131.093 131.261 131.093 131.731 131.008 132.072C130.923 132.413 130.624 132.712 130.112 132.968C129.515 133.224 129.045 133.309 128.704 133.224C128.448 133.053 128.107 132.712 127.68 132.2C127.253 131.773 126.955 131.432 126.784 131.176C126.699 130.835 126.784 130.365 127.04 129.768C127.381 129.256 127.723 129.043 128.064 129.128C128.405 129.128 128.832 129.171 129.344 129.256C129.941 129.341 130.325 129.469 130.496 129.64C130.752 129.811 130.923 130.152 131.008 130.664ZM93.504 130.92C93.6747 131.432 93.6747 131.816 93.504 132.072C93.3333 132.243 93.0347 132.499 92.608 132.84C92.1813 133.096 91.84 133.309 91.584 133.48C91.328 133.651 90.9867 133.565 90.56 133.224C90.1333 132.883 89.92 132.584 89.92 132.328C90.0053 132.072 90.1333 131.645 90.304 131.048C90.4747 130.451 90.944 130.152 91.712 130.152C92.224 130.152 92.608 130.195 92.864 130.28C93.12 130.28 93.3333 130.493 93.504 130.92ZM83.904 131.816L83.392 132.968L81.856 132.84L82.112 131.432L83.136 130.536L83.904 131.816ZM86.848 130.664L87.488 131.432V132.456L86.336 132.328L85.696 131.176L86.848 130.664ZM112.576 131.56L112.32 132.968L110.912 133.096L110.528 131.944L111.296 131.048L112.576 131.56ZM69.056 132.328C69.6533 132.499 69.9093 133.011 69.824 133.864C69.7387 134.461 69.3973 134.845 68.8 135.016C68.032 135.187 67.52 135.016 67.264 134.504C66.9227 133.992 67.008 133.437 67.52 132.84C67.9467 132.243 68.4587 132.072 69.056 132.328ZM133.312 132.328L134.08 133.48L133.568 134.376L132.288 134.504L132.544 133.224L133.312 132.328ZM121.92 133.352L121.152 134.376L120 135.016L119.232 133.608L120.512 132.84L121.92 133.352ZM118.08 135.528C118.165 136.381 117.995 136.936 117.568 137.192C117.227 137.448 116.672 137.704 115.904 137.96C115.307 138.301 114.795 138.472 114.368 138.472C114.027 138.472 113.6 138.173 113.088 137.576C112.576 136.979 112.192 136.467 111.936 136.04C111.765 135.613 111.893 135.059 112.32 134.376C112.747 133.693 113.173 133.352 113.6 133.352C114.112 133.352 114.752 133.437 115.52 133.608C116.288 133.779 116.885 133.949 117.312 134.12C117.739 134.291 117.995 134.76 118.08 135.528ZM131.392 135.016L130.496 136.296L129.6 136.168L129.216 135.272L129.984 133.992L131.392 135.016ZM124.992 135.272V136.552L123.84 137.192L122.816 136.04L123.584 134.76L124.992 135.272ZM85.696 135.144C86.2933 135.315 86.72 135.485 86.976 135.656C87.3173 135.741 87.5307 136.083 87.616 136.68C87.7013 137.363 87.616 137.832 87.36 138.088C87.104 138.259 86.72 138.472 86.208 138.728C85.6107 139.069 85.1413 139.283 84.8 139.368C84.4587 139.453 84.032 139.24 83.52 138.728C82.752 137.875 82.624 136.936 83.136 135.912C83.4773 135.315 83.8187 135.016 84.16 135.016C84.5013 135.016 85.0133 135.059 85.696 135.144ZM79.424 136.424C79.5947 136.851 79.7653 137.192 79.936 137.448C80.1067 137.619 80.064 137.875 79.808 138.216C79.2107 138.899 78.528 139.069 77.76 138.728C77.3333 138.557 77.1627 138.344 77.248 138.088C77.3333 137.832 77.376 137.448 77.376 136.936C77.376 136.595 77.376 136.296 77.376 136.04C77.376 135.784 77.5893 135.571 78.016 135.4C78.4427 135.315 78.6987 135.4 78.784 135.656C78.9547 135.827 79.168 136.083 79.424 136.424ZM91.2 135.528L91.84 136.68L91.328 137.704L90.304 137.192L90.176 136.168L91.2 135.528ZM73.92 136.296L74.56 137.96L72.64 138.472L71.744 136.936L72.896 135.912L73.92 136.296ZM95.936 137.064C96.3627 137.405 96.4907 137.704 96.32 137.96C96.2347 138.216 96.1067 138.6 95.936 139.112C95.68 139.539 95.4667 139.88 95.296 140.136C95.2107 140.392 94.912 140.477 94.4 140.392C93.888 140.307 93.5467 140.179 93.376 140.008C93.2053 139.752 93.0773 139.325 92.992 138.728C92.9067 138.216 92.864 137.832 92.864 137.576C92.9493 137.32 93.248 137.064 93.76 136.808C94.528 136.381 95.2533 136.467 95.936 137.064ZM111.296 137.064V138.216H110.144L109.376 137.32L110.4 136.808L111.296 137.064ZM127.552 138.6L127.424 139.88L126.016 139.624L125.76 138.6L126.656 137.96L127.552 138.6ZM120.128 138.216L120.768 139.112L120.384 140.264L118.976 140.008V138.728L120.128 138.216ZM90.432 139.24L89.92 140.264L88.64 139.88V138.6L89.792 138.472L90.432 139.24ZM75.456 139.24L76.224 140.136L75.2 141.16L74.304 140.136V138.984L75.456 139.24ZM81.984 139.752L81.344 141.032L80.32 141.16L79.168 140.136L80.448 139.112L81.984 139.752ZM111.424 140.136C111.936 140.307 112.149 140.733 112.064 141.416C112.064 141.928 112.107 142.397 112.192 142.824C112.277 143.165 112.021 143.379 111.424 143.464C110.485 143.72 109.717 143.379 109.12 142.44C108.779 142.013 108.736 141.672 108.992 141.416C109.248 141.16 109.547 140.861 109.888 140.52C110.315 140.008 110.827 139.88 111.424 140.136ZM116.288 141.8V142.568L115.52 143.08L114.624 142.184L115.392 141.032L116.288 141.8ZM92.992 142.44L92.608 143.72L91.328 143.464L91.072 142.312L92.096 141.16L92.992 142.44ZM100.032 141.288L99.776 142.696L98.624 142.568L98.752 141.288H100.032ZM85.312 141.416L86.208 142.184L85.696 143.208H84.544L84.416 142.056L85.312 141.416ZM120 141.928L119.232 142.952H118.08L117.824 141.672L118.976 141.544L120 141.928ZM88.768 142.056V143.08L88 143.976L86.72 142.952L87.616 141.8L88.768 142.056ZM108.352 142.568L107.712 144.104L106.048 144.36L105.92 142.824L106.944 142.056L108.352 142.568ZM97.472 142.44L97.6 144.232L96.448 145.64L94.912 144.488L95.68 143.08L97.472 142.44ZM103.616 142.824L104.64 144.232L103.616 145.896L102.208 144.872L102.08 143.464L103.616 142.824Z" fill="#FF0606"/>
</svg>
